<svg width="119" height="32" viewBox="0 0 119 32" fill="none" xmlns="http://www.w3.org/2000/svg">
<g clip-path="url(#clip0_2090_106)">
<path d="M41.9084 8.08942C41.4695 8.08942 41.0774 8.01378 40.7322 7.8625C40.3892 7.71123 40.1175 7.50135 39.9173 7.23289C39.7191 6.96229 39.6126 6.64908 39.5977 6.29326H40.6012C40.614 6.48715 40.679 6.65547 40.7962 6.79823C40.9155 6.93885 41.071 7.04752 41.2628 7.12422C41.4545 7.20093 41.6676 7.23928 41.902 7.23928C42.1598 7.23928 42.3878 7.19454 42.5859 7.10505C42.7862 7.01556 42.9428 6.89091 43.0558 6.73111C43.1687 6.56918 43.2251 6.38275 43.2251 6.17181C43.2251 5.95235 43.1687 5.75952 43.0558 5.59333C42.945 5.425 42.782 5.2929 42.5668 5.19702C42.3537 5.10114 42.0959 5.0532 41.7933 5.0532H41.2404V4.2478H41.7933C42.0362 4.2478 42.2493 4.20412 42.4325 4.11677C42.6179 4.02941 42.7628 3.90796 42.8672 3.75242C42.9716 3.59475 43.0238 3.41045 43.0238 3.19951C43.0238 2.99709 42.978 2.82131 42.8864 2.67216C42.7969 2.52089 42.669 2.40263 42.5028 2.31741C42.3388 2.23218 42.1449 2.18956 41.9212 2.18956C41.7081 2.18956 41.5089 2.22898 41.3235 2.30782C41.1403 2.38452 40.9911 2.49532 40.8761 2.6402C40.761 2.78296 40.6992 2.95448 40.6907 3.15476H39.7351C39.7457 2.80107 39.8501 2.48999 40.0483 2.22152C40.2486 1.95306 40.5128 1.74319 40.8409 1.59191C41.169 1.44063 41.5334 1.36499 41.9339 1.36499C42.3537 1.36499 42.7159 1.44702 43.0206 1.61108C43.3274 1.77302 43.5639 1.98928 43.7301 2.25988C43.8984 2.53047 43.9815 2.82664 43.9794 3.14837C43.9815 3.51485 43.8793 3.82593 43.6726 4.08161C43.468 4.33729 43.1953 4.50881 42.8544 4.59617V4.64731C43.2891 4.71336 43.6257 4.88594 43.8643 5.16506C44.1051 5.44418 44.2244 5.79042 44.2223 6.20377C44.2244 6.56385 44.1243 6.88665 43.9219 7.17216C43.7216 7.45767 43.4478 7.68246 43.1005 7.84652C42.7532 8.00846 42.3558 8.08942 41.9084 8.08942Z" fill="black"/>
<path d="M46.0728 7.99993H45.0245L47.38 1.45448H48.521L50.8764 7.99993H49.8281L47.9776 2.6434H47.9265L46.0728 7.99993ZM46.2486 5.43672H49.6491V6.26769H46.2486V5.43672Z" fill="black"/>
<path d="M51.8216 7.99993V1.45448H54.2187C54.6832 1.45448 55.0677 1.53118 55.3724 1.68459C55.6771 1.83587 55.9051 2.04148 56.0564 2.30142C56.2077 2.55924 56.2833 2.85008 56.2833 3.17394C56.2833 3.44667 56.2332 3.67678 56.1331 3.86428C56.0329 4.04965 55.8987 4.1988 55.7304 4.31172C55.5642 4.42252 55.3809 4.50348 55.1807 4.55462V4.61854C55.398 4.62919 55.61 4.69951 55.8167 4.82948C56.0255 4.95732 56.1981 5.13949 56.3344 5.376C56.4708 5.6125 56.539 5.90015 56.539 6.23892C56.539 6.57344 56.4601 6.87387 56.3025 7.1402C56.1469 7.40441 55.9062 7.61428 55.5802 7.76982C55.2542 7.92323 54.8376 7.99993 54.3305 7.99993H51.8216ZM52.8092 7.15299H54.2346C54.7077 7.15299 55.0464 7.06137 55.251 6.87813C55.4555 6.69489 55.5578 6.46584 55.5578 6.19098C55.5578 5.98431 55.5056 5.79468 55.4012 5.62209C55.2968 5.44951 55.1476 5.31208 54.9537 5.20981C54.762 5.10753 54.534 5.0564 54.2698 5.0564H52.8092V7.15299ZM52.8092 4.28616H54.1324C54.354 4.28616 54.5532 4.24354 54.73 4.15831C54.909 4.07309 55.0507 3.95377 55.1551 3.80036C55.2616 3.64482 55.3149 3.46158 55.3149 3.25064C55.3149 2.98005 55.2201 2.75313 55.0305 2.56989C54.8408 2.38665 54.55 2.29503 54.1579 2.29503H52.8092V4.28616Z" fill="black"/>
<path d="M58.2632 7.99993H57.2149L59.5704 1.45448H60.7114L63.0669 7.99993H62.0186L60.1681 2.6434H60.1169L58.2632 7.99993ZM58.439 5.43672H61.8396V6.26769H58.439V5.43672Z" fill="black"/>
<path d="M64.0121 7.99993V1.45448H64.9996V4.29894H68.2628V1.45448H69.2536V7.99993H68.2628V5.14588H64.9996V7.99993H64.0121Z" fill="black"/>
<path d="M70.369 2.30462V1.45448H75.4347V2.30462H73.3924V7.99993H72.408V2.30462H70.369Z" fill="black"/>
<path d="M76.3335 7.99993H75.2852L77.6407 1.45448H78.7817L81.1372 7.99993H80.0889L78.2384 2.6434H78.1872L76.3335 7.99993ZM76.5093 5.43672H79.9099V6.26769H76.5093V5.43672Z" fill="black"/>
<path d="M86.3267 1.45448V7.99993H85.3487V1.45448H86.3267ZM81.6126 7.99993L83.7092 4.5738L81.7596 1.45448H82.9677L84.5913 4.28616H87.1065L88.7173 1.45448H89.9222L87.979 4.58019L90.0629 7.99993H88.9091L87.2631 5.20661H84.4219L82.7536 7.99993H81.6126Z" fill="black"/>
<path d="M91.0297 1.45448H92.0076V6.2613H92.0684L95.3986 1.45448H96.3127V7.99993H95.3251V3.19951H95.2644L91.9405 7.99993H91.0297V1.45448Z" fill="black"/>
<path d="M97.4305 2.30462V1.45448H102.496V2.30462H100.454V7.99993H99.4695V2.30462H97.4305Z" fill="black"/>
<path d="M103.616 1.45448H104.594V6.2613H104.654L107.985 1.45448H108.899V7.99993H107.911V3.19951H107.85L104.526 7.99993H103.616V1.45448Z" fill="black"/>
<path d="M114.91 8.08942C114.471 8.08942 114.079 8.01378 113.734 7.8625C113.391 7.71123 113.119 7.50135 112.919 7.23289C112.721 6.96229 112.615 6.64908 112.6 6.29326H113.603C113.616 6.48715 113.681 6.65547 113.798 6.79823C113.917 6.93885 114.073 7.04752 114.265 7.12422C114.457 7.20093 114.67 7.23928 114.904 7.23928C115.162 7.23928 115.39 7.19454 115.588 7.10505C115.788 7.01556 115.945 6.89091 116.058 6.73111C116.171 6.56918 116.227 6.38275 116.227 6.17181C116.227 5.95235 116.171 5.75952 116.058 5.59333C115.947 5.425 115.784 5.2929 115.569 5.19702C115.356 5.10114 115.098 5.0532 114.795 5.0532H114.242V4.2478H114.795C115.038 4.2478 115.251 4.20412 115.434 4.11677C115.62 4.02941 115.765 3.90796 115.869 3.75242C115.974 3.59475 116.026 3.41045 116.026 3.19951C116.026 2.99709 115.98 2.82131 115.888 2.67216C115.799 2.52089 115.671 2.40263 115.505 2.31741C115.341 2.23218 115.147 2.18956 114.923 2.18956C114.71 2.18956 114.511 2.22898 114.325 2.30782C114.142 2.38452 113.993 2.49532 113.878 2.6402C113.763 2.78296 113.701 2.95448 113.693 3.15476H112.737C112.748 2.80107 112.852 2.48999 113.05 2.22152C113.251 1.95306 113.515 1.74319 113.843 1.59191C114.171 1.44063 114.535 1.36499 114.936 1.36499C115.356 1.36499 115.718 1.44702 116.023 1.61108C116.329 1.77302 116.566 1.98928 116.732 2.25988C116.9 2.53047 116.983 2.82664 116.981 3.14837C116.983 3.51485 116.881 3.82593 116.675 4.08161C116.47 4.33729 116.197 4.50881 115.856 4.59617V4.64731C116.291 4.71336 116.628 4.88594 116.866 5.16506C117.107 5.44418 117.226 5.79042 117.224 6.20377C117.226 6.56385 117.126 6.88665 116.924 7.17216C116.724 7.45767 116.45 7.68246 116.102 7.84652C115.755 8.00846 115.358 8.08942 114.91 8.08942Z" fill="black"/>
<path d="M21.3668 1C21.487 2.62558 20.9906 4.23566 19.9828 5.48832C19.5003 6.1098 18.8878 6.60979 18.1916 6.95065C17.4954 7.2915 16.7336 7.46433 15.9635 7.45612C15.9144 6.6744 16.0145 5.89031 16.2582 5.14869C16.5019 4.40706 16.8844 3.72244 17.3837 3.13397C18.4051 1.92937 19.8272 1.16744 21.3668 1Z" fill="black"/>
<path d="M24.1753 12.8313C23.6636 13.7648 23.3883 14.8171 23.375 15.8903C23.3762 17.0975 23.7206 18.2777 24.3653 19.2836C25.0099 20.2894 25.9262 21.0766 27 21.5469C26.5778 22.967 25.9415 24.309 25.1145 25.5233C24.0038 27.2436 22.8394 28.9243 20.9911 28.9553C20.1121 28.9763 19.5188 28.7146 18.9005 28.4419C18.2556 28.1574 17.5835 27.861 16.5319 27.861C15.4166 27.861 14.7145 28.1669 14.0373 28.462C13.4521 28.7171 12.8856 28.964 12.0871 28.9983C10.3269 29.0658 8.98175 27.1622 7.83074 25.458C5.53022 21.9778 3.73884 15.6502 6.14044 11.3447C6.69485 10.3131 7.49788 9.44777 8.47128 8.83307C9.44468 8.21837 10.5553 7.87525 11.6948 7.83712C12.6931 7.81586 13.651 8.21427 14.4909 8.56358C15.1331 8.83071 15.7064 9.06912 16.1758 9.06912C16.5884 9.06912 17.1456 8.84013 17.795 8.57325C18.8179 8.15285 20.0696 7.63846 21.3451 7.77709C22.3227 7.80876 23.2796 8.07601 24.14 8.55762C25.0003 9.03923 25.7403 9.72192 26.3013 10.5515C25.4183 11.1136 24.6869 11.8979 24.1753 12.8313Z" fill="black"/>
<path d="M81.9008 25.195C80.1585 25.195 78.8835 24.315 78.7367 22.9748L76.7091 22.9747C76.8372 25.4192 78.8189 26.9656 81.754 26.9656C84.8911 26.9656 86.8634 25.382 86.8634 22.8535C86.8634 20.8767 85.7352 19.7628 83.0197 19.107L81.5615 18.7414C79.8556 18.311 79.1582 17.7488 79.1582 16.7933C79.1582 15.5944 80.25 14.7707 81.8456 14.7707C83.4412 14.7707 84.533 15.5848 84.6527 16.9336H86.6522C86.5877 14.6017 84.6704 13 81.8737 13C79.0479 13 77.0578 14.6017 77.0578 16.9336C77.0578 18.8169 78.1861 19.9775 80.6164 20.577L82.3317 20.9989C84.047 21.4294 84.7714 22.0575 84.7714 23.1065C84.7714 24.315 83.5703 25.195 81.9008 25.195Z" fill="black"/>
<path fill-rule="evenodd" clip-rule="evenodd" d="M42.3483 23.0874H47.3932L48.6037 26.7404H50.7769L45.9985 13.2253H43.7784L39 26.7404H41.1368L42.3483 23.0874ZM46.8697 21.4017H42.8708L44.8432 15.4732H44.8984L46.8697 21.4017Z" fill="black"/>
<path fill-rule="evenodd" clip-rule="evenodd" d="M57.0698 26.8434C59.4918 26.8434 61.0968 24.8761 61.0968 21.8141C61.0968 18.7605 59.4824 16.7837 57.0334 16.7837C56.4149 16.7633 55.8025 16.9145 55.2615 17.2213C54.7205 17.528 54.271 17.9788 53.9609 18.5256H53.9244V16.8867H52.0072V30H53.9879V25.1195H54.0337C54.3302 25.6689 54.7722 26.1221 55.3092 26.427C55.8461 26.7318 56.4563 26.8762 57.0698 26.8434ZM56.5109 18.5076C58.0513 18.5076 59.0609 19.8191 59.0609 21.8141C59.0609 23.8271 58.0513 25.129 56.5109 25.129C54.9975 25.129 53.9796 23.7994 53.9796 21.8141C53.9796 19.8467 54.9975 18.5076 56.5109 18.5076Z" fill="black"/>
<path fill-rule="evenodd" clip-rule="evenodd" d="M71.7174 21.814C71.7174 24.8761 70.1124 26.8434 67.6904 26.8434C67.0769 26.8762 66.4667 26.7318 65.9298 26.4269C65.3928 26.1221 64.9508 25.6689 64.6543 25.1194H64.6085V30H62.6278V16.8867H64.545V18.5256H64.5814C64.8915 17.9788 65.341 17.528 65.882 17.2213C66.4231 16.9145 67.0354 16.7633 67.6539 16.7837C70.103 16.7837 71.7174 18.7605 71.7174 21.814ZM69.6815 21.814C69.6815 19.8191 68.6719 18.5076 67.1315 18.5076C65.6181 18.5076 64.6002 19.8467 64.6002 21.814C64.6002 23.7994 65.6181 25.129 67.1315 25.129C68.6719 25.129 69.6815 23.8271 69.6815 21.814Z" fill="black"/>
<path d="M91.1381 14.5549V16.8868H92.9731V18.4885H91.1381V23.9206C91.1381 24.7645 91.5055 25.1578 92.3122 25.1578C92.53 25.1539 92.7475 25.1383 92.9637 25.111V26.7031C92.6011 26.7723 92.2324 26.8036 91.8636 26.7966C89.9099 26.7966 89.148 26.0473 89.148 24.1364V18.4885H87.745V16.8868H89.148V14.5549H91.1381Z" fill="black"/>
<path fill-rule="evenodd" clip-rule="evenodd" d="M98.6123 16.7656C95.8239 16.7656 94.0358 18.7138 94.0358 21.8141C94.0358 24.9229 95.8062 26.8626 98.6123 26.8626C101.419 26.8626 103.19 24.9229 103.19 21.8141C103.19 18.7138 101.41 16.7656 98.6123 16.7656ZM98.6123 18.4322C100.217 18.4322 101.172 19.6874 101.172 21.8141C101.172 23.9493 100.217 25.195 98.6123 25.195C97.0073 25.195 96.0539 23.9493 96.0539 21.8141C96.0539 19.6969 97.0073 18.4322 98.6123 18.4322Z" fill="black"/>
<path d="M104.823 16.8869H106.712V18.5641H106.758C106.886 18.0403 107.186 17.5773 107.609 17.2531C108.032 16.9289 108.551 16.7632 109.079 16.7838C109.307 16.783 109.535 16.8083 109.757 16.8593V18.7511C109.469 18.6612 109.169 18.6199 108.868 18.6289C108.58 18.617 108.293 18.6688 108.027 18.7808C107.76 18.8927 107.521 19.0622 107.325 19.2776C107.129 19.493 106.981 19.7491 106.891 20.0285C106.801 20.3078 106.771 20.6037 106.804 20.8959V26.7405H104.823L104.823 16.8869Z" fill="black"/>
<path fill-rule="evenodd" clip-rule="evenodd" d="M114.735 26.8626C116.917 26.8626 118.623 25.635 118.89 23.8462L117.009 23.8462C116.833 24.2914 116.521 24.6668 116.12 24.9165C115.718 25.1663 115.249 25.2769 114.78 25.2322C114.424 25.2456 114.069 25.1814 113.739 25.0439C113.409 24.9065 113.111 24.6988 112.866 24.4349C112.62 24.1709 112.433 23.8566 112.315 23.5129C112.198 23.1691 112.153 22.8038 112.185 22.4412V22.3189H119V21.626C119 18.6383 117.321 16.7656 114.651 16.7656C111.937 16.7656 110.185 18.7701 110.185 21.8609C110.185 24.942 111.928 26.8626 114.735 26.8626ZM117.018 20.9054H112.194C112.193 20.576 112.256 20.2497 112.38 19.9454C112.503 19.641 112.684 19.3646 112.912 19.1321C113.141 18.8996 113.412 18.7156 113.711 18.5907C114.009 18.4658 114.329 18.4026 114.651 18.4045C114.971 18.3975 115.289 18.458 115.585 18.5824C115.88 18.7067 116.148 18.892 116.37 19.1269C116.592 19.3617 116.765 19.6409 116.876 19.947C116.988 20.253 117.036 20.5793 117.018 20.9054Z" fill="black"/>
</g>
<defs>
<clipPath id="clip0_2090_106">
<rect width="119" height="32" fill="white"/>
</clipPath>
</defs>
</svg>
