<svg width="133" height="32" viewBox="0 0 133 32" fill="none" xmlns="http://www.w3.org/2000/svg">
<g clip-path="url(#clip0_2090_507)">
<path d="M112.064 26.6915H114.133V13.4778H112.064V26.6915ZM130.699 18.2374L128.327 23.9665H128.257L125.795 18.2374H123.566L127.257 26.2444L125.153 30.6987H127.311L133 18.2374H130.699ZM118.966 25.1905C118.287 25.1905 117.342 24.8671 117.342 24.0682C117.342 23.048 118.519 22.6579 119.536 22.6579C120.445 22.6579 120.873 22.8451 121.426 23.0997C121.265 24.3239 120.16 25.1905 118.966 25.1905ZM119.215 17.9489C117.717 17.9489 116.165 18.5778 115.523 19.971L117.36 20.7024C117.753 19.971 118.483 19.7331 119.251 19.7331C120.321 19.7331 121.408 20.3452 121.426 21.4329V21.5691C121.051 21.3653 120.249 21.0598 119.269 21.0598C117.289 21.0598 115.273 22.0967 115.273 24.0341C115.273 25.8026 116.897 26.9411 118.715 26.9411C120.107 26.9411 120.873 26.3469 121.355 25.6493H121.426V26.6694H123.423V21.6029C123.423 19.2575 121.587 17.9489 119.215 17.9489ZM106.428 19.8462H103.486V15.3159H106.428C107.975 15.3159 108.853 16.5378 108.853 17.5811C108.853 18.6054 107.975 19.8462 106.428 19.8462ZM106.375 13.4778H101.418V26.6915H103.486V21.6855H106.375C108.668 21.6855 110.923 20.102 110.923 17.5811C110.923 15.0601 108.668 13.4778 106.375 13.4778ZM79.3415 25.1927C77.9123 25.1927 76.716 24.0522 76.716 22.4857C76.716 20.9023 77.9123 19.7437 79.3415 19.7437C80.7529 19.7437 81.8596 20.9023 81.8596 22.4857C81.8596 24.0522 80.7529 25.1927 79.3415 25.1927ZM81.7166 18.9774H81.6457C81.1811 18.4499 80.2885 17.9721 79.1631 17.9721C76.8045 17.9721 74.6435 19.9478 74.6435 22.4857C74.6435 25.0056 76.8045 26.9643 79.1631 26.9643C80.2885 26.9643 81.1811 26.4876 81.6457 25.9422H81.7166V26.5889C81.7166 28.3098 80.7529 29.2285 79.1986 29.2285C77.9299 29.2285 77.1439 28.3605 76.8223 27.628L75.0182 28.3437C75.5361 29.5359 76.9122 31 79.1986 31C81.6279 31 83.6825 29.6375 83.6825 26.3172V18.2449H81.7166V18.9774ZM85.1106 26.6915H87.183V13.4767H85.1106V26.6915ZM90.2377 22.3323C90.1844 20.5946 91.6493 19.7099 92.7027 19.7099C93.5253 19.7099 94.2216 20.1011 94.4534 20.6633L90.2377 22.3323ZM96.6688 20.8336C96.2751 19.8283 95.0787 17.9721 92.6316 17.9721C90.2023 17.9721 88.1843 19.7945 88.1843 22.4688C88.1843 24.9886 90.1844 26.9643 92.8633 26.9643C95.0255 26.9643 96.2751 25.7042 96.7941 24.9718L95.1863 23.9497C94.6496 24.699 93.9179 25.1927 92.8633 25.1927C91.8102 25.1927 91.0594 24.7328 90.577 23.8313L96.8829 21.3441L96.6688 20.8336ZM46.4311 19.3527V21.2595H51.2179C51.0747 22.3323 50.7 23.1156 50.1291 23.6599C49.4316 24.3248 48.3416 25.0564 46.4311 25.0564C43.4828 25.0564 41.1786 22.7922 41.1786 19.9816C41.1786 17.172 43.4828 14.9079 46.4311 14.9079C48.0212 14.9079 49.1821 15.503 50.0392 16.2692L51.4506 14.9249C50.2533 13.835 48.6642 13 46.4311 13C42.3939 13 39 16.134 39 19.9816C39 23.8313 42.3939 26.9643 46.4311 26.9643C48.61 26.9643 50.2533 26.2824 51.5393 25.0056C52.861 23.7456 53.2725 21.9752 53.2725 20.544C53.2725 20.1011 53.2369 19.6931 53.1648 19.3527H46.4311ZM58.7144 25.1927C57.2863 25.1927 56.0534 24.069 56.0534 22.4688C56.0534 20.8504 57.2863 19.7437 58.7144 19.7437C60.1436 19.7437 61.3766 20.8504 61.3766 22.4688C61.3766 24.069 60.1436 25.1927 58.7144 25.1927ZM58.7144 17.9721C56.1064 17.9721 53.9809 19.8632 53.9809 22.4688C53.9809 25.0564 56.1064 26.9643 58.7144 26.9643C61.3224 26.9643 63.4491 25.0564 63.4491 22.4688C63.4491 19.8632 61.3224 17.9721 58.7144 17.9721ZM69.0417 25.1927C67.6125 25.1927 66.3796 24.069 66.3796 22.4688C66.3796 20.8504 67.6125 19.7437 69.0417 19.7437C70.471 19.7437 71.703 20.8504 71.703 22.4688C71.703 24.069 70.471 25.1927 69.0417 25.1927ZM69.0417 17.9721C66.434 17.9721 64.3083 19.8632 64.3083 22.4688C64.3083 25.0564 66.434 26.9643 69.0417 26.9643C71.6497 26.9643 73.7752 25.0564 73.7752 22.4688C73.7752 19.8632 71.6497 17.9721 69.0417 17.9721Z" fill="black"/>
<path d="M41.9084 8.08942C41.4695 8.08942 41.0774 8.01378 40.7322 7.8625C40.3892 7.71123 40.1175 7.50135 39.9173 7.23289C39.7191 6.96229 39.6126 6.64908 39.5977 6.29326H40.6012C40.614 6.48715 40.679 6.65547 40.7962 6.79823C40.9155 6.93885 41.071 7.04752 41.2628 7.12422C41.4545 7.20093 41.6676 7.23928 41.902 7.23928C42.1598 7.23928 42.3878 7.19454 42.5859 7.10505C42.7862 7.01556 42.9428 6.89091 43.0558 6.73111C43.1687 6.56918 43.2251 6.38275 43.2251 6.17181C43.2251 5.95235 43.1687 5.75952 43.0558 5.59333C42.945 5.425 42.782 5.2929 42.5668 5.19702C42.3537 5.10114 42.0959 5.0532 41.7933 5.0532H41.2404V4.2478H41.7933C42.0362 4.2478 42.2493 4.20412 42.4325 4.11677C42.6179 4.02941 42.7628 3.90796 42.8672 3.75242C42.9716 3.59475 43.0238 3.41045 43.0238 3.19951C43.0238 2.99709 42.978 2.82131 42.8864 2.67216C42.7969 2.52089 42.669 2.40263 42.5028 2.31741C42.3388 2.23218 42.1449 2.18956 41.9212 2.18956C41.7081 2.18956 41.5089 2.22898 41.3235 2.30782C41.1403 2.38452 40.9911 2.49532 40.8761 2.6402C40.761 2.78296 40.6992 2.95448 40.6907 3.15476H39.7351C39.7457 2.80107 39.8501 2.48999 40.0483 2.22152C40.2486 1.95306 40.5128 1.74319 40.8409 1.59191C41.169 1.44063 41.5334 1.36499 41.9339 1.36499C42.3537 1.36499 42.7159 1.44702 43.0206 1.61108C43.3274 1.77302 43.5639 1.98928 43.7301 2.25988C43.8984 2.53047 43.9815 2.82664 43.9794 3.14837C43.9815 3.51485 43.8793 3.82593 43.6726 4.08161C43.468 4.33729 43.1953 4.50881 42.8544 4.59617V4.64731C43.2891 4.71336 43.6257 4.88594 43.8643 5.16506C44.1051 5.44418 44.2244 5.79042 44.2223 6.20377C44.2244 6.56385 44.1243 6.88665 43.9219 7.17216C43.7216 7.45767 43.4478 7.68246 43.1005 7.84652C42.7532 8.00846 42.3558 8.08942 41.9084 8.08942Z" fill="black"/>
<path d="M46.0728 7.99993H45.0245L47.38 1.45448H48.521L50.8764 7.99993H49.8281L47.9776 2.6434H47.9265L46.0728 7.99993ZM46.2486 5.43672H49.6491V6.26769H46.2486V5.43672Z" fill="black"/>
<path d="M51.8216 7.99993V1.45448H54.2187C54.6832 1.45448 55.0677 1.53118 55.3724 1.68459C55.6771 1.83587 55.9051 2.04148 56.0564 2.30142C56.2077 2.55924 56.2833 2.85008 56.2833 3.17394C56.2833 3.44667 56.2332 3.67678 56.1331 3.86428C56.0329 4.04965 55.8987 4.1988 55.7304 4.31172C55.5642 4.42252 55.3809 4.50348 55.1807 4.55462V4.61854C55.398 4.62919 55.61 4.69951 55.8167 4.82948C56.0255 4.95732 56.1981 5.13949 56.3344 5.376C56.4708 5.6125 56.539 5.90015 56.539 6.23892C56.539 6.57344 56.4601 6.87387 56.3025 7.1402C56.1469 7.40441 55.9062 7.61428 55.5802 7.76982C55.2542 7.92323 54.8376 7.99993 54.3305 7.99993H51.8216ZM52.8092 7.15299H54.2346C54.7077 7.15299 55.0464 7.06137 55.251 6.87813C55.4555 6.69489 55.5578 6.46584 55.5578 6.19098C55.5578 5.98431 55.5056 5.79468 55.4012 5.62209C55.2968 5.44951 55.1476 5.31208 54.9537 5.20981C54.762 5.10753 54.534 5.0564 54.2698 5.0564H52.8092V7.15299ZM52.8092 4.28616H54.1324C54.354 4.28616 54.5532 4.24354 54.73 4.15831C54.909 4.07309 55.0507 3.95377 55.1551 3.80036C55.2616 3.64482 55.3149 3.46158 55.3149 3.25064C55.3149 2.98005 55.2201 2.75313 55.0305 2.56989C54.8408 2.38665 54.55 2.29503 54.1579 2.29503H52.8092V4.28616Z" fill="black"/>
<path d="M58.2632 7.99993H57.2149L59.5704 1.45448H60.7114L63.0669 7.99993H62.0186L60.1681 2.6434H60.1169L58.2632 7.99993ZM58.439 5.43672H61.8396V6.26769H58.439V5.43672Z" fill="black"/>
<path d="M64.0121 7.99993V1.45448H64.9996V4.29894H68.2628V1.45448H69.2536V7.99993H68.2628V5.14588H64.9996V7.99993H64.0121Z" fill="black"/>
<path d="M70.369 2.30462V1.45448H75.4347V2.30462H73.3924V7.99993H72.408V2.30462H70.369Z" fill="black"/>
<path d="M76.3335 7.99993H75.2852L77.6407 1.45448H78.7817L81.1372 7.99993H80.0889L78.2384 2.6434H78.1872L76.3335 7.99993ZM76.5093 5.43672H79.9099V6.26769H76.5093V5.43672Z" fill="black"/>
<path d="M86.3267 1.45448V7.99993H85.3487V1.45448H86.3267ZM81.6126 7.99993L83.7092 4.5738L81.7596 1.45448H82.9677L84.5913 4.28616H87.1065L88.7173 1.45448H89.9222L87.979 4.58019L90.0629 7.99993H88.9091L87.2631 5.20661H84.4219L82.7536 7.99993H81.6126Z" fill="black"/>
<path d="M91.0297 1.45448H92.0076V6.2613H92.0684L95.3986 1.45448H96.3127V7.99993H95.3251V3.19951H95.2644L91.9405 7.99993H91.0297V1.45448Z" fill="black"/>
<path d="M97.4305 2.30462V1.45448H102.496V2.30462H100.454V7.99993H99.4695V2.30462H97.4305Z" fill="black"/>
<path d="M103.616 1.45448H104.594V6.2613H104.654L107.985 1.45448H108.899V7.99993H107.911V3.19951H107.85L104.526 7.99993H103.616V1.45448Z" fill="black"/>
<path d="M114.91 8.08942C114.471 8.08942 114.079 8.01378 113.734 7.8625C113.391 7.71123 113.119 7.50135 112.919 7.23289C112.721 6.96229 112.615 6.64908 112.6 6.29326H113.603C113.616 6.48715 113.681 6.65547 113.798 6.79823C113.917 6.93885 114.073 7.04752 114.265 7.12422C114.457 7.20093 114.67 7.23928 114.904 7.23928C115.162 7.23928 115.39 7.19454 115.588 7.10505C115.788 7.01556 115.945 6.89091 116.058 6.73111C116.171 6.56918 116.227 6.38275 116.227 6.17181C116.227 5.95235 116.171 5.75952 116.058 5.59333C115.947 5.425 115.784 5.2929 115.569 5.19702C115.356 5.10114 115.098 5.0532 114.795 5.0532H114.242V4.2478H114.795C115.038 4.2478 115.251 4.20412 115.434 4.11677C115.62 4.02941 115.765 3.90796 115.869 3.75242C115.974 3.59475 116.026 3.41045 116.026 3.19951C116.026 2.99709 115.98 2.82131 115.888 2.67216C115.799 2.52089 115.671 2.40263 115.505 2.31741C115.341 2.23218 115.147 2.18956 114.923 2.18956C114.71 2.18956 114.511 2.22898 114.325 2.30782C114.142 2.38452 113.993 2.49532 113.878 2.6402C113.763 2.78296 113.701 2.95448 113.693 3.15476H112.737C112.748 2.80107 112.852 2.48999 113.05 2.22152C113.251 1.95306 113.515 1.74319 113.843 1.59191C114.171 1.44063 114.535 1.36499 114.936 1.36499C115.356 1.36499 115.718 1.44702 116.023 1.61108C116.329 1.77302 116.566 1.98928 116.732 2.25988C116.9 2.53047 116.983 2.82664 116.981 3.14837C116.983 3.51485 116.881 3.82593 116.675 4.08161C116.47 4.33729 116.197 4.50881 115.856 4.59617V4.64731C116.291 4.71336 116.628 4.88594 116.866 5.16506C117.107 5.44418 117.226 5.79042 117.224 6.20377C117.226 6.56385 117.126 6.88665 116.924 7.17216C116.724 7.45767 116.45 7.68246 116.102 7.84652C115.755 8.00846 115.358 8.08942 114.91 8.08942Z" fill="black"/>
<path d="M16.1392 14.8494L4.11096 27.5905C4.11207 27.5927 4.11207 27.5961 4.11318 27.5983C4.48262 28.9818 5.74792 30 7.2505 30C7.85152 30 8.41528 29.8376 8.89882 29.5535L8.93719 29.5309L22.476 21.7342L16.1392 14.8494Z" fill="#EB3131"/>
<path d="M28.3077 12.6801L28.2963 12.6721L22.4509 9.29065L15.8657 15.1391L22.4746 21.7329L28.2883 18.3854C29.3073 17.8349 30 16.7628 30 15.527C30 14.2979 29.3174 13.2313 28.3077 12.6801Z" fill="#F6B60B"/>
<path d="M4.11066 3.40864C4.03837 3.67467 4 3.95436 4 4.243V26.7573C4 27.046 4.03836 27.3255 4.11186 27.5906L16.5525 15.1754L4.11066 3.40864Z" fill="#5778C5"/>
<path d="M16.228 15.5L22.4529 9.28841L8.92987 1.46349C8.43852 1.16919 7.86461 1.00001 7.25115 1.00001C5.74864 1.00001 4.48104 2.02051 4.11158 3.40505C4.11158 3.40623 4.11047 3.40741 4.11047 3.40835L16.228 15.5Z" fill="#3BAD49"/>
</g>
<defs>
<clipPath id="clip0_2090_507">
<rect width="133" height="32" fill="white"/>
</clipPath>
</defs>
</svg>
