<svg width="48" height="49" viewBox="0 0 48 49" fill="none" xmlns="http://www.w3.org/2000/svg">
<path d="M24.0547 0.975098H23.9453C10.7207 0.975098 0 11.6958 0 24.9204V25.0298C0 38.2544 10.7207 48.9751 23.9453 48.9751H24.0547C37.2793 48.9751 48 38.2544 48 25.0298V24.9204C48 11.6958 37.2793 0.975098 24.0547 0.975098Z" fill="url(#paint0_linear_2012_1645)"/>
<path d="M29.894 13H17.9728C14.6793 13 12 15.6793 12 18.9728V29.879C12 33.1725 14.6793 35.8518 17.9728 35.8518H29.894C33.1875 35.8518 35.8668 33.1725 35.8668 29.879V18.9728C35.8668 15.6793 33.1875 13 29.894 13ZM14.107 18.9728C14.107 16.8415 15.8415 15.107 17.9728 15.107H29.894C32.0253 15.107 33.7598 16.8415 33.7598 18.9728V29.879C33.7598 32.0103 32.0253 33.7448 29.894 33.7448H17.9728C15.8415 33.7448 14.107 32.0103 14.107 29.879V18.9728Z" fill="white"/>
<path d="M23.9333 29.98C26.996 29.98 29.489 27.4884 29.489 24.4243C29.489 21.3603 26.9973 18.8687 23.9333 18.8687C20.8693 18.8687 18.3776 21.3603 18.3776 24.4243C18.3776 27.4884 20.8693 29.98 23.9333 29.98ZM23.9333 20.977C25.8352 20.977 27.382 22.5239 27.382 24.4257C27.382 26.3275 25.8352 27.8744 23.9333 27.8744C22.0315 27.8744 20.4846 26.3275 20.4846 24.4257C20.4846 22.5239 22.0315 20.977 23.9333 20.977Z" fill="white"/>
<path d="M30.0034 19.7663C30.8281 19.7663 31.5003 19.0954 31.5003 18.2694C31.5003 17.4433 30.8294 16.7725 30.0034 16.7725C29.1773 16.7725 28.5065 17.4433 28.5065 18.2694C28.5065 19.0954 29.1773 19.7663 30.0034 19.7663Z" fill="white"/>
<defs>
<linearGradient id="paint0_linear_2012_1645" x1="7.01258" y1="41.9625" x2="40.9874" y2="7.98936" gradientUnits="userSpaceOnUse">
<stop stop-color="#FAAD4F"/>
<stop offset="0.35" stop-color="#DD2A7B"/>
<stop offset="0.62" stop-color="#9537B0"/>
<stop offset="1" stop-color="#515BD4"/>
</linearGradient>
</defs>
</svg>
