<svg width="102" height="102" viewBox="0 0 102 102" fill="none" xmlns="http://www.w3.org/2000/svg">
<g filter="url(#filter0_d_2012_913)">
<circle cx="51" cy="47" r="43" fill="url(#paint0_linear_2012_913)"/>
</g>
<path d="M32.6852 56.4444C32.6852 56.1683 32.4613 55.9444 32.1852 55.9444H28.5C28.2239 55.9444 28 56.1683 28 56.4444V65.3148C28 67.8917 30.1083 70 32.6852 70H41.5556C41.8317 70 42.0556 69.7761 42.0556 69.5V65.8148C42.0556 65.5387 41.8317 65.3148 41.5556 65.3148H33.1852C32.909 65.3148 32.6852 65.091 32.6852 64.8148V56.4444ZM32.6852 29.1852C32.6852 28.909 32.909 28.6852 33.1852 28.6852H41.5556C41.8317 28.6852 42.0556 28.4613 42.0556 28.1852V24.5C42.0556 24.2239 41.8317 24 41.5556 24H32.6852C30.1083 24 28 26.1083 28 28.6852V37.5556C28 37.8317 28.2239 38.0556 28.5 38.0556H32.1852C32.4613 38.0556 32.6852 37.8317 32.6852 37.5556V29.1852ZM51 37.6296C45.8229 37.6296 41.6296 41.8229 41.6296 47C41.6296 52.1771 45.8229 56.3704 51 56.3704C56.1771 56.3704 60.3704 52.1771 60.3704 47C60.3704 41.8229 56.1771 37.6296 51 37.6296ZM51 51.6852C48.4231 51.6852 46.3148 49.5769 46.3148 47C46.3148 44.4231 48.4231 42.3148 51 42.3148C53.5769 42.3148 55.6852 44.4231 55.6852 47C55.6852 49.5769 53.5769 51.6852 51 51.6852ZM69.3148 24H60.4444C60.1683 24 59.9444 24.2239 59.9444 24.5V28.1852C59.9444 28.4613 60.1683 28.6852 60.4444 28.6852H68.8148C69.091 28.6852 69.3148 28.909 69.3148 29.1852V37.5556C69.3148 37.8317 69.5387 38.0556 69.8148 38.0556H73.5C73.7761 38.0556 74 37.8317 74 37.5556V28.6852C74 26.1083 71.8917 24 69.3148 24ZM69.3148 64.8148C69.3148 65.091 69.091 65.3148 68.8148 65.3148H60.4444C60.1683 65.3148 59.9444 65.5387 59.9444 65.8148V69.5C59.9444 69.7761 60.1683 70 60.4444 70H69.3148C71.8917 70 74 67.8917 74 65.3148V56.4444C74 56.1683 73.7761 55.9444 73.5 55.9444H69.8148C69.5387 55.9444 69.3148 56.1683 69.3148 56.4444V64.8148Z" fill="black"/>
<defs>
<filter id="filter0_d_2012_913" x="0" y="0" width="102" height="102" filterUnits="userSpaceOnUse" color-interpolation-filters="sRGB">
<feFlood flood-opacity="0" result="BackgroundImageFix"/>
<feColorMatrix in="SourceAlpha" type="matrix" values="0 0 0 0 0 0 0 0 0 0 0 0 0 0 0 0 0 0 127 0" result="hardAlpha"/>
<feOffset dy="4"/>
<feGaussianBlur stdDeviation="4"/>
<feComposite in2="hardAlpha" operator="out"/>
<feColorMatrix type="matrix" values="0 0 0 0 0 0 0 0 0 0.374793 0 0 0 0 0.312328 0 0 0 0.2 0"/>
<feBlend mode="normal" in2="BackgroundImageFix" result="effect1_dropShadow_2012_913"/>
<feBlend mode="normal" in="SourceGraphic" in2="effect1_dropShadow_2012_913" result="shape"/>
</filter>
<linearGradient id="paint0_linear_2012_913" x1="50.683" y1="88.3589" x2="50.683" y2="4.25358" gradientUnits="userSpaceOnUse">
<stop stop-color="#BEEC26"/>
<stop offset="1" stop-color="#F8FF6F"/>
</linearGradient>
</defs>
</svg>
