<svg width="48" height="49" viewBox="0 0 48 49" fill="none" xmlns="http://www.w3.org/2000/svg">
<rect y="0.975098" width="48" height="48" rx="24" fill="url(#paint0_linear_2012_1651)"/>
<path fill-rule="evenodd" clip-rule="evenodd" d="M12.7186 23.0404C19.4295 20.0768 23.9045 18.123 26.1435 17.179C32.5365 14.4838 33.8649 14.0156 34.7307 14.0002C34.9212 13.9968 35.347 14.0446 35.6228 14.2714C35.8557 14.463 35.9197 14.7217 35.9504 14.9033C35.9811 15.0849 36.0192 15.4986 35.9889 15.8219C35.6424 19.5115 34.1434 28.465 33.3808 32.5974C33.0581 34.3459 32.4227 34.9322 31.8076 34.9896C30.4707 35.1143 29.4556 34.0941 28.1608 33.2338C26.1348 31.8876 24.9901 31.0496 23.0235 29.736C20.7507 28.2179 22.224 27.3835 23.5193 26.0199C23.8583 25.663 29.7484 20.2326 29.8624 19.74C29.8767 19.6784 29.8899 19.4488 29.7553 19.3275C29.6207 19.2062 29.422 19.2477 29.2787 19.2807C29.0754 19.3274 25.8388 21.4958 19.5686 25.786C18.6499 26.4254 17.8177 26.737 17.0721 26.7206C16.2502 26.7026 14.6691 26.2496 13.4937 25.8623C12.0521 25.3873 10.9063 25.1362 11.0061 24.3295C11.058 23.9093 11.6289 23.4796 12.7186 23.0404Z" fill="white"/>
<defs>
<linearGradient id="paint0_linear_2012_1651" x1="24" y1="0.975098" x2="24" y2="48.6191" gradientUnits="userSpaceOnUse">
<stop offset="1" stop-color="#229ED9"/>
</linearGradient>
</defs>
</svg>
