<svg width="48" height="49" viewBox="0 0 48 49" fill="none" xmlns="http://www.w3.org/2000/svg">
<rect y="0.975098" width="48" height="48" rx="24" fill="white"/>
<path d="M34.3572 20.4066V24.4078C33.6469 24.3395 32.724 24.1806 31.7031 23.8124C30.3701 23.3314 29.3778 22.6737 28.7279 22.1644V30.2514L28.7113 30.2262C28.7219 30.3865 28.7279 30.5499 28.7279 30.7147C28.7279 34.7307 25.4088 37.9999 21.3282 37.9999C17.2476 37.9999 13.9286 34.7307 13.9286 30.7147C13.9286 26.6986 17.2476 23.4279 21.3282 23.4279C21.7278 23.4279 22.1199 23.4591 22.503 23.5199V27.4632C22.135 27.3341 21.7399 27.2643 21.3282 27.2643C19.3965 27.2643 17.8237 28.8113 17.8237 30.7147C17.8237 32.618 19.3965 34.165 21.3282 34.165C23.26 34.165 24.8328 32.6165 24.8328 30.7147C24.8328 30.6434 24.8313 30.5721 24.8267 30.5009V14.7856H28.8877C28.9028 15.1241 28.9164 15.4656 28.9315 15.8041C28.9586 16.4707 29.1999 17.1106 29.6206 17.6347C30.1137 18.2509 30.8421 18.9665 31.8645 19.5381C32.822 20.0711 33.7208 20.3012 34.3572 20.4096V20.4066Z" fill="#FF004F"/>
<path d="M33.4286 17.6224V21.6221C32.7183 21.5539 31.7954 21.395 30.7745 21.0268C29.4415 20.5458 28.4492 19.8881 27.7993 19.3788V27.4658L27.7827 27.4406C27.7933 27.6009 27.7993 27.7642 27.7993 27.929C27.7993 31.9451 24.4802 35.2143 20.3996 35.2143C16.3191 35.2143 13 31.9451 13 27.929C13 23.913 16.3191 20.6423 20.3996 20.6423C20.7993 20.6423 21.1913 20.6734 21.5744 20.7343V24.6776C21.2064 24.5484 20.8113 24.4787 20.3996 24.4787C18.4679 24.4787 16.8951 26.0257 16.8951 27.929C16.8951 29.8324 18.4679 31.3794 20.3996 31.3794C22.3314 31.3794 23.9042 29.8309 23.9042 27.929C23.9042 27.8578 23.9027 27.7865 23.8981 27.7152V12H27.9591C27.9742 12.3385 27.9878 12.68 28.0029 13.0185C28.03 13.6851 28.2713 14.325 28.692 14.8491C29.1851 15.4652 29.9135 16.1808 30.9359 16.7524C31.8935 17.2854 32.7922 17.5155 33.4286 17.6239V17.6224Z" fill="#00F7EF"/>
<path d="M33.4286 19.4781V23.4793C32.7506 23.411 31.8697 23.2522 30.8952 22.884C29.6227 22.4029 28.6756 21.7452 28.0552 21.236V29.323L28.0394 29.2977C28.0494 29.4581 28.0552 29.6214 28.0552 29.7862C28.0552 33.8022 24.887 37.0715 20.9919 37.0715C17.0968 37.0715 13.9286 33.8022 13.9286 29.7862C13.9286 25.7702 17.0968 22.4994 20.9919 22.4994C21.3733 22.4994 21.7476 22.5306 22.1132 22.5915V26.5348C21.762 26.4056 21.3849 26.3358 20.9919 26.3358C19.148 26.3358 17.6466 27.8829 17.6466 29.7862C17.6466 31.6895 19.148 33.2366 20.9919 33.2366C22.8358 33.2366 24.3371 31.6881 24.3371 29.7862C24.3371 29.7149 24.3357 29.6437 24.3314 29.5724V13.8572H28.2078C28.2222 14.1957 28.2351 14.5372 28.2495 14.8757C28.2754 15.5423 28.5057 16.1822 28.9073 16.7062C29.378 17.3224 30.0733 18.038 31.0492 18.6096C31.9632 19.1426 32.8211 19.3727 33.4286 19.4811V19.4781Z" fill="black"/>
</svg>
