<svg width="24" height="24" viewBox="0 0 24 24" fill="none" xmlns="http://www.w3.org/2000/svg">
<path d="M14.3582 9.89009C14.2481 9.84006 14.1599 9.75186 14.1099 9.64181L12.4552 6.0014C12.2775 5.61061 11.7225 5.61061 11.5448 6.0014L9.89009 9.64181C9.84006 9.75186 9.75186 9.84006 9.64181 9.89009L6.0014 11.5448C5.61061 11.7225 5.61061 12.2775 6.0014 12.4552L9.64181 14.1099C9.75186 14.1599 9.84006 14.2481 9.89009 14.3582L11.5448 17.9986C11.7225 18.3894 12.2775 18.3894 12.4552 17.9986L14.1099 14.3582C14.1599 14.2481 14.2481 14.1599 14.3582 14.1099L17.9986 12.4552C18.3894 12.2775 18.3894 11.7225 17.9986 11.5448L14.3582 9.89009ZM13.0372 12.7886C12.927 12.8387 12.8387 12.927 12.7886 13.0372L12.4553 13.7713C12.2777 14.1623 11.7223 14.1623 11.5447 13.7713L11.2114 13.0372C11.1613 12.927 11.073 12.8387 10.9629 12.7886L10.2287 12.4553C9.83772 12.2777 9.83772 11.7223 10.2287 11.5447L10.9629 11.2114C11.073 11.1613 11.1613 11.073 11.2114 10.9629L11.5447 10.2287C11.7223 9.83772 12.2777 9.83772 12.4553 10.2287L12.7886 10.9629C12.8387 11.073 12.927 11.1613 13.0372 11.2114L13.7713 11.5447C14.1623 11.7223 14.1623 12.2777 13.7713 12.4553L13.0372 12.7886Z" fill="#1B1E14"/>
</svg>
