<svg width="46" height="46" viewBox="0 0 46 46" fill="none" xmlns="http://www.w3.org/2000/svg">
<path fill-rule="evenodd" clip-rule="evenodd" d="M14.655 18.7557C15.8417 18.0276 17.3737 18.1515 18.3755 18.6524C20.0187 19.474 22.0169 18.808 22.8385 17.1647C23.6601 15.5215 22.994 13.5233 21.3508 12.7017C18.7842 11.4185 14.747 10.8936 11.1754 13.0852C6.28506 16.086 5.85791 20.8379 5.85791 23.9498C5.85791 25.787 7.34724 27.2763 9.18443 27.2763C11.0216 27.2763 12.5109 25.787 12.5109 23.9498C12.5109 21.3573 12.8917 19.8378 14.655 18.7557Z" fill="url(#paint0_radial_1_1194)"/>
<path fill-rule="evenodd" clip-rule="evenodd" d="M14.655 18.7557C15.8417 18.0276 17.3737 18.1515 18.3755 18.6524C20.0187 19.474 22.0169 18.808 22.8385 17.1647C23.6601 15.5215 22.994 13.5233 21.3508 12.7017C18.7842 11.4185 14.747 10.8936 11.1754 13.0852C6.28506 16.086 5.85791 20.8379 5.85791 23.9498C5.85791 25.787 7.34724 27.2763 9.18443 27.2763C11.0216 27.2763 12.5109 25.787 12.5109 23.9498C12.5109 21.3573 12.8917 19.8378 14.655 18.7557Z" fill="url(#paint1_radial_1_1194)"/>
<path fill-rule="evenodd" clip-rule="evenodd" d="M14.655 18.7557C15.8417 18.0276 17.3737 18.1515 18.3755 18.6524C20.0187 19.474 22.0169 18.808 22.8385 17.1647C23.6601 15.5215 22.994 13.5233 21.3508 12.7017C18.7842 11.4185 14.747 10.8936 11.1754 13.0852C6.28506 16.086 5.85791 20.8379 5.85791 23.9498C5.85791 25.787 7.34724 27.2763 9.18443 27.2763C11.0216 27.2763 12.5109 25.787 12.5109 23.9498C12.5109 21.3573 12.8917 19.8378 14.655 18.7557Z" fill="url(#paint2_radial_1_1194)"/>
<path d="M20.3795 21.0997C20.3795 21.0997 20.3722 21.0911 20.3563 21.075C20.3399 21.0583 20.3166 21.0357 20.286 21.0084C20.2242 20.9531 20.1407 20.8856 20.0364 20.8128C19.8251 20.6652 19.5603 20.5177 19.2602 20.4037C18.6742 20.1811 18.0105 20.1022 17.2825 20.3221C15.7378 20.7886 14.8503 22.0223 14.2803 23.8191C14.0264 25.2395 14.0507 27.9727 15.3511 29.258C15.7328 29.6836 16.5622 30.223 17.6254 30.9146C19.8609 32.3687 23.13 34.4951 25.4435 37.6485C27.0977 39.7572 25.594 41.9899 24.7733 42.4378C23.6342 43.0594 22.3534 43.2942 21.0246 42.2398C19.6958 41.1854 17.5697 39.6686 15.2646 40.0741C12.9595 40.4796 12.0483 40.6309 10.7032 40.6309H3.81868C2.24395 40.6309 0.967594 39.3544 0.967594 37.7796V30.6316C0.967594 27.3231 3.18809 23.0662 6.67449 22.3396C7.3354 22.2019 7.93471 21.7815 8.16612 21.1473C9.17942 18.3702 11.1747 15.2168 15.359 13.9531C20.0842 12.5261 23.972 15.0483 25.455 16.7982C26.6428 18.1998 26.4695 20.2989 25.0679 21.4867C23.6664 22.6745 21.5673 22.5012 20.3795 21.0997Z" fill="url(#paint3_linear_1_1194)"/>
<path d="M20.3795 21.0997C20.3795 21.0997 20.3722 21.0911 20.3563 21.075C20.3399 21.0583 20.3166 21.0357 20.286 21.0084C20.2242 20.9531 20.1407 20.8856 20.0364 20.8128C19.8251 20.6652 19.5603 20.5177 19.2602 20.4037C18.6742 20.1811 18.0105 20.1022 17.2825 20.3221C15.7378 20.7886 14.8503 22.0223 14.2803 23.8191C14.0264 25.2395 14.0507 27.9727 15.3511 29.258C15.7328 29.6836 16.5622 30.223 17.6254 30.9146C19.8609 32.3687 23.13 34.4951 25.4435 37.6485C27.0977 39.7572 25.594 41.9899 24.7733 42.4378C23.6342 43.0594 22.3534 43.2942 21.0246 42.2398C19.6958 41.1854 17.5697 39.6686 15.2646 40.0741C12.9595 40.4796 12.0483 40.6309 10.7032 40.6309H3.81868C2.24395 40.6309 0.967594 39.3544 0.967594 37.7796V30.6316C0.967594 27.3231 3.18809 23.0662 6.67449 22.3396C7.3354 22.2019 7.93471 21.7815 8.16612 21.1473C9.17942 18.3702 11.1747 15.2168 15.359 13.9531C20.0842 12.5261 23.972 15.0483 25.455 16.7982C26.6428 18.1998 26.4695 20.2989 25.0679 21.4867C23.6664 22.6745 21.5673 22.5012 20.3795 21.0997Z" fill="url(#paint4_radial_1_1194)"/>
<path d="M20.3795 21.0997C20.3795 21.0997 20.3722 21.0911 20.3563 21.075C20.3399 21.0583 20.3166 21.0357 20.286 21.0084C20.2242 20.9531 20.1407 20.8856 20.0364 20.8128C19.8251 20.6652 19.5603 20.5177 19.2602 20.4037C18.6742 20.1811 18.0105 20.1022 17.2825 20.3221C15.7378 20.7886 14.8503 22.0223 14.2803 23.8191C14.0264 25.2395 14.0507 27.9727 15.3511 29.258C15.7328 29.6836 16.5622 30.223 17.6254 30.9146C19.8609 32.3687 23.13 34.4951 25.4435 37.6485C27.0977 39.7572 25.594 41.9899 24.7733 42.4378C23.6342 43.0594 22.3534 43.2942 21.0246 42.2398C19.6958 41.1854 17.5697 39.6686 15.2646 40.0741C12.9595 40.4796 12.0483 40.6309 10.7032 40.6309H3.81868C2.24395 40.6309 0.967594 39.3544 0.967594 37.7796V30.6316C0.967594 27.3231 3.18809 23.0662 6.67449 22.3396C7.3354 22.2019 7.93471 21.7815 8.16612 21.1473C9.17942 18.3702 11.1747 15.2168 15.359 13.9531C20.0842 12.5261 23.972 15.0483 25.455 16.7982C26.6428 18.1998 26.4695 20.2989 25.0679 21.4867C23.6664 22.6745 21.5673 22.5012 20.3795 21.0997Z" fill="url(#paint5_radial_1_1194)"/>
<path d="M20.3795 21.0997C20.3795 21.0997 20.3722 21.0911 20.3563 21.075C20.3399 21.0583 20.3166 21.0357 20.286 21.0084C20.2242 20.9531 20.1407 20.8856 20.0364 20.8128C19.8251 20.6652 19.5603 20.5177 19.2602 20.4037C18.6742 20.1811 18.0105 20.1022 17.2825 20.3221C15.7378 20.7886 14.8503 22.0223 14.2803 23.8191C14.0264 25.2395 14.0507 27.9727 15.3511 29.258C15.7328 29.6836 16.5622 30.223 17.6254 30.9146C19.8609 32.3687 23.13 34.4951 25.4435 37.6485C27.0977 39.7572 25.594 41.9899 24.7733 42.4378C23.6342 43.0594 22.3534 43.2942 21.0246 42.2398C19.6958 41.1854 17.5697 39.6686 15.2646 40.0741C12.9595 40.4796 12.0483 40.6309 10.7032 40.6309H3.81868C2.24395 40.6309 0.967594 39.3544 0.967594 37.7796V30.6316C0.967594 27.3231 3.18809 23.0662 6.67449 22.3396C7.3354 22.2019 7.93471 21.7815 8.16612 21.1473C9.17942 18.3702 11.1747 15.2168 15.359 13.9531C20.0842 12.5261 23.972 15.0483 25.455 16.7982C26.6428 18.1998 26.4695 20.2989 25.0679 21.4867C23.6664 22.6745 21.5673 22.5012 20.3795 21.0997Z" fill="url(#paint6_radial_1_1194)"/>
<path d="M20.3795 21.0997C20.3795 21.0997 20.3722 21.0911 20.3563 21.075C20.3399 21.0583 20.3166 21.0357 20.286 21.0084C20.2242 20.9531 20.1407 20.8856 20.0364 20.8128C19.8251 20.6652 19.5603 20.5177 19.2602 20.4037C18.6742 20.1811 18.0105 20.1022 17.2825 20.3221C15.7378 20.7886 14.8503 22.0223 14.2803 23.8191C14.0264 25.2395 14.0507 27.9727 15.3511 29.258C15.7328 29.6836 16.5622 30.223 17.6254 30.9146C19.8609 32.3687 23.13 34.4951 25.4435 37.6485C27.0977 39.7572 25.594 41.9899 24.7733 42.4378C23.6342 43.0594 22.3534 43.2942 21.0246 42.2398C19.6958 41.1854 17.5697 39.6686 15.2646 40.0741C12.9595 40.4796 12.0483 40.6309 10.7032 40.6309H3.81868C2.24395 40.6309 0.967594 39.3544 0.967594 37.7796V30.6316C0.967594 27.3231 3.18809 23.0662 6.67449 22.3396C7.3354 22.2019 7.93471 21.7815 8.16612 21.1473C9.17942 18.3702 11.1747 15.2168 15.359 13.9531C20.0842 12.5261 23.972 15.0483 25.455 16.7982C26.6428 18.1998 26.4695 20.2989 25.0679 21.4867C23.6664 22.6745 21.5673 22.5012 20.3795 21.0997Z" fill="url(#paint7_radial_1_1194)"/>
<path d="M20.3795 21.0997C20.3795 21.0997 20.3722 21.0911 20.3563 21.075C20.3399 21.0583 20.3166 21.0357 20.286 21.0084C20.2242 20.9531 20.1407 20.8856 20.0364 20.8128C19.8251 20.6652 19.5603 20.5177 19.2602 20.4037C18.6742 20.1811 18.0105 20.1022 17.2825 20.3221C15.7378 20.7886 14.8503 22.0223 14.2803 23.8191C14.0264 25.2395 14.0507 27.9727 15.3511 29.258C15.7328 29.6836 16.5622 30.223 17.6254 30.9146C19.8609 32.3687 23.13 34.4951 25.4435 37.6485C27.0977 39.7572 25.594 41.9899 24.7733 42.4378C23.6342 43.0594 22.3534 43.2942 21.0246 42.2398C19.6958 41.1854 17.5697 39.6686 15.2646 40.0741C12.9595 40.4796 12.0483 40.6309 10.7032 40.6309H3.81868C2.24395 40.6309 0.967594 39.3544 0.967594 37.7796V30.6316C0.967594 27.3231 3.18809 23.0662 6.67449 22.3396C7.3354 22.2019 7.93471 21.7815 8.16612 21.1473C9.17942 18.3702 11.1747 15.2168 15.359 13.9531C20.0842 12.5261 23.972 15.0483 25.455 16.7982C26.6428 18.1998 26.4695 20.2989 25.0679 21.4867C23.6664 22.6745 21.5673 22.5012 20.3795 21.0997Z" fill="url(#paint8_radial_1_1194)"/>
<path d="M20.3795 21.0997C20.3795 21.0997 20.3722 21.0911 20.3563 21.075C20.3399 21.0583 20.3166 21.0357 20.286 21.0084C20.2242 20.9531 20.1407 20.8856 20.0364 20.8128C19.8251 20.6652 19.5603 20.5177 19.2602 20.4037C18.6742 20.1811 18.0105 20.1022 17.2825 20.3221C15.7378 20.7886 14.8503 22.0223 14.2803 23.8191C14.0264 25.2395 14.0507 27.9727 15.3511 29.258C15.7328 29.6836 16.5622 30.223 17.6254 30.9146C19.8609 32.3687 23.13 34.4951 25.4435 37.6485C27.0977 39.7572 25.594 41.9899 24.7733 42.4378C23.6342 43.0594 22.3534 43.2942 21.0246 42.2398C19.6958 41.1854 17.5697 39.6686 15.2646 40.0741C12.9595 40.4796 12.0483 40.6309 10.7032 40.6309H3.81868C2.24395 40.6309 0.967594 39.3544 0.967594 37.7796V30.6316C0.967594 27.3231 3.18809 23.0662 6.67449 22.3396C7.3354 22.2019 7.93471 21.7815 8.16612 21.1473C9.17942 18.3702 11.1747 15.2168 15.359 13.9531C20.0842 12.5261 23.972 15.0483 25.455 16.7982C26.6428 18.1998 26.4695 20.2989 25.0679 21.4867C23.6664 22.6745 21.5673 22.5012 20.3795 21.0997Z" fill="url(#paint9_radial_1_1194)"/>
<path d="M20.3795 21.0997C20.3795 21.0997 20.3722 21.0911 20.3563 21.075C20.3399 21.0583 20.3166 21.0357 20.286 21.0084C20.2242 20.9531 20.1407 20.8856 20.0364 20.8128C19.8251 20.6652 19.5603 20.5177 19.2602 20.4037C18.6742 20.1811 18.0105 20.1022 17.2825 20.3221C15.7378 20.7886 14.8503 22.0223 14.2803 23.8191C14.0264 25.2395 14.0507 27.9727 15.3511 29.258C15.7328 29.6836 16.5622 30.223 17.6254 30.9146C19.8609 32.3687 23.13 34.4951 25.4435 37.6485C27.0977 39.7572 25.594 41.9899 24.7733 42.4378C23.6342 43.0594 22.3534 43.2942 21.0246 42.2398C19.6958 41.1854 17.5697 39.6686 15.2646 40.0741C12.9595 40.4796 12.0483 40.6309 10.7032 40.6309H3.81868C2.24395 40.6309 0.967594 39.3544 0.967594 37.7796V30.6316C0.967594 27.3231 3.18809 23.0662 6.67449 22.3396C7.3354 22.2019 7.93471 21.7815 8.16612 21.1473C9.17942 18.3702 11.1747 15.2168 15.359 13.9531C20.0842 12.5261 23.972 15.0483 25.455 16.7982C26.6428 18.1998 26.4695 20.2989 25.0679 21.4867C23.6664 22.6745 21.5673 22.5012 20.3795 21.0997Z" fill="url(#paint10_radial_1_1194)"/>
<path d="M20.3795 21.0997C20.3795 21.0997 20.3722 21.0911 20.3563 21.075C20.3399 21.0583 20.3166 21.0357 20.286 21.0084C20.2242 20.9531 20.1407 20.8856 20.0364 20.8128C19.8251 20.6652 19.5603 20.5177 19.2602 20.4037C18.6742 20.1811 18.0105 20.1022 17.2825 20.3221C15.7378 20.7886 14.8503 22.0223 14.2803 23.8191C14.0264 25.2395 14.0507 27.9727 15.3511 29.258C15.7328 29.6836 16.5622 30.223 17.6254 30.9146C19.8609 32.3687 23.13 34.4951 25.4435 37.6485C27.0977 39.7572 25.594 41.9899 24.7733 42.4378C23.6342 43.0594 22.3534 43.2942 21.0246 42.2398C19.6958 41.1854 17.5697 39.6686 15.2646 40.0741C12.9595 40.4796 12.0483 40.6309 10.7032 40.6309H3.81868C2.24395 40.6309 0.967594 39.3544 0.967594 37.7796V30.6316C0.967594 27.3231 3.18809 23.0662 6.67449 22.3396C7.3354 22.2019 7.93471 21.7815 8.16612 21.1473C9.17942 18.3702 11.1747 15.2168 15.359 13.9531C20.0842 12.5261 23.972 15.0483 25.455 16.7982C26.6428 18.1998 26.4695 20.2989 25.0679 21.4867C23.6664 22.6745 21.5673 22.5012 20.3795 21.0997Z" fill="url(#paint11_radial_1_1194)"/>
<path d="M20.3795 21.0997C20.3795 21.0997 20.3722 21.0911 20.3563 21.075C20.3399 21.0583 20.3166 21.0357 20.286 21.0084C20.2242 20.9531 20.1407 20.8856 20.0364 20.8128C19.8251 20.6652 19.5603 20.5177 19.2602 20.4037C18.6742 20.1811 18.0105 20.1022 17.2825 20.3221C15.7378 20.7886 14.8503 22.0223 14.2803 23.8191C14.0264 25.2395 14.0507 27.9727 15.3511 29.258C15.7328 29.6836 16.5622 30.223 17.6254 30.9146C19.8609 32.3687 23.13 34.4951 25.4435 37.6485C27.0977 39.7572 25.594 41.9899 24.7733 42.4378C23.6342 43.0594 22.3534 43.2942 21.0246 42.2398C19.6958 41.1854 17.5697 39.6686 15.2646 40.0741C12.9595 40.4796 12.0483 40.6309 10.7032 40.6309H3.81868C2.24395 40.6309 0.967594 39.3544 0.967594 37.7796V30.6316C0.967594 27.3231 3.18809 23.0662 6.67449 22.3396C7.3354 22.2019 7.93471 21.7815 8.16612 21.1473C9.17942 18.3702 11.1747 15.2168 15.359 13.9531C20.0842 12.5261 23.972 15.0483 25.455 16.7982C26.6428 18.1998 26.4695 20.2989 25.0679 21.4867C23.6664 22.6745 21.5673 22.5012 20.3795 21.0997Z" fill="url(#paint12_radial_1_1194)"/>
<path d="M20.3795 21.0997C20.3795 21.0997 20.3722 21.0911 20.3563 21.075C20.3399 21.0583 20.3166 21.0357 20.286 21.0084C20.2242 20.9531 20.1407 20.8856 20.0364 20.8128C19.8251 20.6652 19.5603 20.5177 19.2602 20.4037C18.6742 20.1811 18.0105 20.1022 17.2825 20.3221C15.7378 20.7886 14.8503 22.0223 14.2803 23.8191C14.0264 25.2395 14.0507 27.9727 15.3511 29.258C15.7328 29.6836 16.5622 30.223 17.6254 30.9146C19.8609 32.3687 23.13 34.4951 25.4435 37.6485C27.0977 39.7572 25.594 41.9899 24.7733 42.4378C23.6342 43.0594 22.3534 43.2942 21.0246 42.2398C19.6958 41.1854 17.5697 39.6686 15.2646 40.0741C12.9595 40.4796 12.0483 40.6309 10.7032 40.6309H3.81868C2.24395 40.6309 0.967594 39.3544 0.967594 37.7796V30.6316C0.967594 27.3231 3.18809 23.0662 6.67449 22.3396C7.3354 22.2019 7.93471 21.7815 8.16612 21.1473C9.17942 18.3702 11.1747 15.2168 15.359 13.9531C20.0842 12.5261 23.972 15.0483 25.455 16.7982C26.6428 18.1998 26.4695 20.2989 25.0679 21.4867C23.6664 22.6745 21.5673 22.5012 20.3795 21.0997Z" fill="url(#paint13_linear_1_1194)"/>
<path d="M20.3795 21.0997C20.3795 21.0997 20.3722 21.0911 20.3563 21.075C20.3399 21.0583 20.3166 21.0357 20.286 21.0084C20.2242 20.9531 20.1407 20.8856 20.0364 20.8128C19.8251 20.6652 19.5603 20.5177 19.2602 20.4037C18.6742 20.1811 18.0105 20.1022 17.2825 20.3221C15.7378 20.7886 14.8503 22.0223 14.2803 23.8191C14.0264 25.2395 14.0507 27.9727 15.3511 29.258C15.7328 29.6836 16.5622 30.223 17.6254 30.9146C19.8609 32.3687 23.13 34.4951 25.4435 37.6485C27.0977 39.7572 25.594 41.9899 24.7733 42.4378C23.6342 43.0594 22.3534 43.2942 21.0246 42.2398C19.6958 41.1854 17.5697 39.6686 15.2646 40.0741C12.9595 40.4796 12.0483 40.6309 10.7032 40.6309H3.81868C2.24395 40.6309 0.967594 39.3544 0.967594 37.7796V30.6316C0.967594 27.3231 3.18809 23.0662 6.67449 22.3396C7.3354 22.2019 7.93471 21.7815 8.16612 21.1473C9.17942 18.3702 11.1747 15.2168 15.359 13.9531C20.0842 12.5261 23.972 15.0483 25.455 16.7982C26.6428 18.1998 26.4695 20.2989 25.0679 21.4867C23.6664 22.6745 21.5673 22.5012 20.3795 21.0997Z" fill="url(#paint14_radial_1_1194)"/>
<path d="M20.3795 21.0997C20.3795 21.0997 20.3722 21.0911 20.3563 21.075C20.3399 21.0583 20.3166 21.0357 20.286 21.0084C20.2242 20.9531 20.1407 20.8856 20.0364 20.8128C19.8251 20.6652 19.5603 20.5177 19.2602 20.4037C18.6742 20.1811 18.0105 20.1022 17.2825 20.3221C15.7378 20.7886 14.8503 22.0223 14.2803 23.8191C14.0264 25.2395 14.0507 27.9727 15.3511 29.258C15.7328 29.6836 16.5622 30.223 17.6254 30.9146C19.8609 32.3687 23.13 34.4951 25.4435 37.6485C27.0977 39.7572 25.594 41.9899 24.7733 42.4378C23.6342 43.0594 22.3534 43.2942 21.0246 42.2398C19.6958 41.1854 17.5697 39.6686 15.2646 40.0741C12.9595 40.4796 12.0483 40.6309 10.7032 40.6309H3.81868C2.24395 40.6309 0.967594 39.3544 0.967594 37.7796V30.6316C0.967594 27.3231 3.18809 23.0662 6.67449 22.3396C7.3354 22.2019 7.93471 21.7815 8.16612 21.1473C9.17942 18.3702 11.1747 15.2168 15.359 13.9531C20.0842 12.5261 23.972 15.0483 25.455 16.7982C26.6428 18.1998 26.4695 20.2989 25.0679 21.4867C23.6664 22.6745 21.5673 22.5012 20.3795 21.0997Z" fill="url(#paint15_radial_1_1194)"/>
<path fill-rule="evenodd" clip-rule="evenodd" d="M31.4502 18.7557C30.2636 18.0276 28.7316 18.1515 27.7298 18.6524C26.0865 19.474 24.0884 18.808 23.2668 17.1647C22.4452 15.5215 23.1113 13.5233 24.7545 12.7017C27.3211 11.4185 31.3583 10.8936 34.9298 13.0852C39.8202 16.086 40.2474 20.8379 40.2474 23.9498C40.2474 25.787 38.758 27.2763 36.9209 27.2763C35.0837 27.2763 33.5943 25.787 33.5943 23.9498C33.5943 21.3573 33.2136 19.8378 31.4502 18.7557Z" fill="url(#paint16_linear_1_1194)"/>
<path fill-rule="evenodd" clip-rule="evenodd" d="M31.4502 18.7557C30.2636 18.0276 28.7316 18.1515 27.7298 18.6524C26.0865 19.474 24.0884 18.808 23.2668 17.1647C22.4452 15.5215 23.1113 13.5233 24.7545 12.7017C27.3211 11.4185 31.3583 10.8936 34.9298 13.0852C39.8202 16.086 40.2474 20.8379 40.2474 23.9498C40.2474 25.787 38.758 27.2763 36.9209 27.2763C35.0837 27.2763 33.5943 25.787 33.5943 23.9498C33.5943 21.3573 33.2136 19.8378 31.4502 18.7557Z" fill="url(#paint17_radial_1_1194)"/>
<path fill-rule="evenodd" clip-rule="evenodd" d="M31.4502 18.7557C30.2636 18.0276 28.7316 18.1515 27.7298 18.6524C26.0865 19.474 24.0884 18.808 23.2668 17.1647C22.4452 15.5215 23.1113 13.5233 24.7545 12.7017C27.3211 11.4185 31.3583 10.8936 34.9298 13.0852C39.8202 16.086 40.2474 20.8379 40.2474 23.9498C40.2474 25.787 38.758 27.2763 36.9209 27.2763C35.0837 27.2763 33.5943 25.787 33.5943 23.9498C33.5943 21.3573 33.2136 19.8378 31.4502 18.7557Z" fill="url(#paint18_radial_1_1194)"/>
<path d="M25.7257 21.0997C25.7257 21.0997 25.7331 21.0911 25.7489 21.075C25.7654 21.0583 25.7887 21.0357 25.8192 21.0084C25.8811 20.9531 25.9646 20.8856 26.0689 20.8128C26.2801 20.6652 26.545 20.5177 26.8451 20.4037C27.4311 20.1811 28.0947 20.1022 28.8228 20.3221C30.3675 20.7886 31.255 22.0223 31.825 23.8191C32.0789 25.2395 32.0546 27.9727 30.7541 29.258C30.3725 29.6836 29.5431 30.223 28.4799 30.9146C26.2443 32.3687 22.9753 34.4951 20.6617 37.6485C19.0075 39.7572 20.5113 41.9899 21.332 42.4378C22.4711 43.0594 23.7519 43.2942 25.0807 42.2398C26.4095 41.1854 28.5356 39.6686 30.8407 40.0741C33.1458 40.4796 34.057 40.6309 35.4021 40.6309H42.2866C43.8613 40.6309 45.1377 39.3544 45.1377 37.7796V30.6316C45.1377 27.5314 43.1879 23.5983 40.0738 22.5177C39.0635 22.1671 38.1058 21.5133 37.6974 20.5249C36.6183 17.9135 34.6206 15.1232 30.7463 13.9531C26.0211 12.5261 22.1332 15.0483 20.6502 16.7982C19.4625 18.1998 19.6358 20.2989 21.0373 21.4867C22.4389 22.6745 24.538 22.5012 25.7257 21.0997Z" fill="#FFBB45"/>
<path d="M25.7257 21.0997C25.7257 21.0997 25.7331 21.0911 25.7489 21.075C25.7654 21.0583 25.7887 21.0357 25.8192 21.0084C25.8811 20.9531 25.9646 20.8856 26.0689 20.8128C26.2801 20.6652 26.545 20.5177 26.8451 20.4037C27.4311 20.1811 28.0947 20.1022 28.8228 20.3221C30.3675 20.7886 31.255 22.0223 31.825 23.8191C32.0789 25.2395 32.0546 27.9727 30.7541 29.258C30.3725 29.6836 29.5431 30.223 28.4799 30.9146C26.2443 32.3687 22.9753 34.4951 20.6617 37.6485C19.0075 39.7572 20.5113 41.9899 21.332 42.4378C22.4711 43.0594 23.7519 43.2942 25.0807 42.2398C26.4095 41.1854 28.5356 39.6686 30.8407 40.0741C33.1458 40.4796 34.057 40.6309 35.4021 40.6309H42.2866C43.8613 40.6309 45.1377 39.3544 45.1377 37.7796V30.6316C45.1377 27.5314 43.1879 23.5983 40.0738 22.5177C39.0635 22.1671 38.1058 21.5133 37.6974 20.5249C36.6183 17.9135 34.6206 15.1232 30.7463 13.9531C26.0211 12.5261 22.1332 15.0483 20.6502 16.7982C19.4625 18.1998 19.6358 20.2989 21.0373 21.4867C22.4389 22.6745 24.538 22.5012 25.7257 21.0997Z" fill="url(#paint19_radial_1_1194)"/>
<path d="M25.7257 21.0997C25.7257 21.0997 25.7331 21.0911 25.7489 21.075C25.7654 21.0583 25.7887 21.0357 25.8192 21.0084C25.8811 20.9531 25.9646 20.8856 26.0689 20.8128C26.2801 20.6652 26.545 20.5177 26.8451 20.4037C27.4311 20.1811 28.0947 20.1022 28.8228 20.3221C30.3675 20.7886 31.255 22.0223 31.825 23.8191C32.0789 25.2395 32.0546 27.9727 30.7541 29.258C30.3725 29.6836 29.5431 30.223 28.4799 30.9146C26.2443 32.3687 22.9753 34.4951 20.6617 37.6485C19.0075 39.7572 20.5113 41.9899 21.332 42.4378C22.4711 43.0594 23.7519 43.2942 25.0807 42.2398C26.4095 41.1854 28.5356 39.6686 30.8407 40.0741C33.1458 40.4796 34.057 40.6309 35.4021 40.6309H42.2866C43.8613 40.6309 45.1377 39.3544 45.1377 37.7796V30.6316C45.1377 27.5314 43.1879 23.5983 40.0738 22.5177C39.0635 22.1671 38.1058 21.5133 37.6974 20.5249C36.6183 17.9135 34.6206 15.1232 30.7463 13.9531C26.0211 12.5261 22.1332 15.0483 20.6502 16.7982C19.4625 18.1998 19.6358 20.2989 21.0373 21.4867C22.4389 22.6745 24.538 22.5012 25.7257 21.0997Z" fill="url(#paint20_radial_1_1194)"/>
<path d="M25.7257 21.0997C25.7257 21.0997 25.7331 21.0911 25.7489 21.075C25.7654 21.0583 25.7887 21.0357 25.8192 21.0084C25.8811 20.9531 25.9646 20.8856 26.0689 20.8128C26.2801 20.6652 26.545 20.5177 26.8451 20.4037C27.4311 20.1811 28.0947 20.1022 28.8228 20.3221C30.3675 20.7886 31.255 22.0223 31.825 23.8191C32.0789 25.2395 32.0546 27.9727 30.7541 29.258C30.3725 29.6836 29.5431 30.223 28.4799 30.9146C26.2443 32.3687 22.9753 34.4951 20.6617 37.6485C19.0075 39.7572 20.5113 41.9899 21.332 42.4378C22.4711 43.0594 23.7519 43.2942 25.0807 42.2398C26.4095 41.1854 28.5356 39.6686 30.8407 40.0741C33.1458 40.4796 34.057 40.6309 35.4021 40.6309H42.2866C43.8613 40.6309 45.1377 39.3544 45.1377 37.7796V30.6316C45.1377 27.5314 43.1879 23.5983 40.0738 22.5177C39.0635 22.1671 38.1058 21.5133 37.6974 20.5249C36.6183 17.9135 34.6206 15.1232 30.7463 13.9531C26.0211 12.5261 22.1332 15.0483 20.6502 16.7982C19.4625 18.1998 19.6358 20.2989 21.0373 21.4867C22.4389 22.6745 24.538 22.5012 25.7257 21.0997Z" fill="url(#paint21_radial_1_1194)"/>
<path d="M25.7257 21.0997C25.7257 21.0997 25.7331 21.0911 25.7489 21.075C25.7654 21.0583 25.7887 21.0357 25.8192 21.0084C25.8811 20.9531 25.9646 20.8856 26.0689 20.8128C26.2801 20.6652 26.545 20.5177 26.8451 20.4037C27.4311 20.1811 28.0947 20.1022 28.8228 20.3221C30.3675 20.7886 31.255 22.0223 31.825 23.8191C32.0789 25.2395 32.0546 27.9727 30.7541 29.258C30.3725 29.6836 29.5431 30.223 28.4799 30.9146C26.2443 32.3687 22.9753 34.4951 20.6617 37.6485C19.0075 39.7572 20.5113 41.9899 21.332 42.4378C22.4711 43.0594 23.7519 43.2942 25.0807 42.2398C26.4095 41.1854 28.5356 39.6686 30.8407 40.0741C33.1458 40.4796 34.057 40.6309 35.4021 40.6309H42.2866C43.8613 40.6309 45.1377 39.3544 45.1377 37.7796V30.6316C45.1377 27.5314 43.1879 23.5983 40.0738 22.5177C39.0635 22.1671 38.1058 21.5133 37.6974 20.5249C36.6183 17.9135 34.6206 15.1232 30.7463 13.9531C26.0211 12.5261 22.1332 15.0483 20.6502 16.7982C19.4625 18.1998 19.6358 20.2989 21.0373 21.4867C22.4389 22.6745 24.538 22.5012 25.7257 21.0997Z" fill="url(#paint22_radial_1_1194)"/>
<path d="M25.7257 21.0997C25.7257 21.0997 25.7331 21.0911 25.7489 21.075C25.7654 21.0583 25.7887 21.0357 25.8192 21.0084C25.8811 20.9531 25.9646 20.8856 26.0689 20.8128C26.2801 20.6652 26.545 20.5177 26.8451 20.4037C27.4311 20.1811 28.0947 20.1022 28.8228 20.3221C30.3675 20.7886 31.255 22.0223 31.825 23.8191C32.0789 25.2395 32.0546 27.9727 30.7541 29.258C30.3725 29.6836 29.5431 30.223 28.4799 30.9146C26.2443 32.3687 22.9753 34.4951 20.6617 37.6485C19.0075 39.7572 20.5113 41.9899 21.332 42.4378C22.4711 43.0594 23.7519 43.2942 25.0807 42.2398C26.4095 41.1854 28.5356 39.6686 30.8407 40.0741C33.1458 40.4796 34.057 40.6309 35.4021 40.6309H42.2866C43.8613 40.6309 45.1377 39.3544 45.1377 37.7796V30.6316C45.1377 27.5314 43.1879 23.5983 40.0738 22.5177C39.0635 22.1671 38.1058 21.5133 37.6974 20.5249C36.6183 17.9135 34.6206 15.1232 30.7463 13.9531C26.0211 12.5261 22.1332 15.0483 20.6502 16.7982C19.4625 18.1998 19.6358 20.2989 21.0373 21.4867C22.4389 22.6745 24.538 22.5012 25.7257 21.0997Z" fill="url(#paint23_radial_1_1194)"/>
<path d="M25.7257 21.0997C25.7257 21.0997 25.7331 21.0911 25.7489 21.075C25.7654 21.0583 25.7887 21.0357 25.8192 21.0084C25.8811 20.9531 25.9646 20.8856 26.0689 20.8128C26.2801 20.6652 26.545 20.5177 26.8451 20.4037C27.4311 20.1811 28.0947 20.1022 28.8228 20.3221C30.3675 20.7886 31.255 22.0223 31.825 23.8191C32.0789 25.2395 32.0546 27.9727 30.7541 29.258C30.3725 29.6836 29.5431 30.223 28.4799 30.9146C26.2443 32.3687 22.9753 34.4951 20.6617 37.6485C19.0075 39.7572 20.5113 41.9899 21.332 42.4378C22.4711 43.0594 23.7519 43.2942 25.0807 42.2398C26.4095 41.1854 28.5356 39.6686 30.8407 40.0741C33.1458 40.4796 34.057 40.6309 35.4021 40.6309H42.2866C43.8613 40.6309 45.1377 39.3544 45.1377 37.7796V30.6316C45.1377 27.5314 43.1879 23.5983 40.0738 22.5177C39.0635 22.1671 38.1058 21.5133 37.6974 20.5249C36.6183 17.9135 34.6206 15.1232 30.7463 13.9531C26.0211 12.5261 22.1332 15.0483 20.6502 16.7982C19.4625 18.1998 19.6358 20.2989 21.0373 21.4867C22.4389 22.6745 24.538 22.5012 25.7257 21.0997Z" fill="url(#paint24_radial_1_1194)"/>
<path d="M25.7257 21.0997C25.7257 21.0997 25.7331 21.0911 25.7489 21.075C25.7654 21.0583 25.7887 21.0357 25.8192 21.0084C25.8811 20.9531 25.9646 20.8856 26.0689 20.8128C26.2801 20.6652 26.545 20.5177 26.8451 20.4037C27.4311 20.1811 28.0947 20.1022 28.8228 20.3221C30.3675 20.7886 31.255 22.0223 31.825 23.8191C32.0789 25.2395 32.0546 27.9727 30.7541 29.258C30.3725 29.6836 29.5431 30.223 28.4799 30.9146C26.2443 32.3687 22.9753 34.4951 20.6617 37.6485C19.0075 39.7572 20.5113 41.9899 21.332 42.4378C22.4711 43.0594 23.7519 43.2942 25.0807 42.2398C26.4095 41.1854 28.5356 39.6686 30.8407 40.0741C33.1458 40.4796 34.057 40.6309 35.4021 40.6309H42.2866C43.8613 40.6309 45.1377 39.3544 45.1377 37.7796V30.6316C45.1377 27.5314 43.1879 23.5983 40.0738 22.5177C39.0635 22.1671 38.1058 21.5133 37.6974 20.5249C36.6183 17.9135 34.6206 15.1232 30.7463 13.9531C26.0211 12.5261 22.1332 15.0483 20.6502 16.7982C19.4625 18.1998 19.6358 20.2989 21.0373 21.4867C22.4389 22.6745 24.538 22.5012 25.7257 21.0997Z" fill="url(#paint25_radial_1_1194)"/>
<path d="M25.7257 21.0997C25.7257 21.0997 25.7331 21.0911 25.7489 21.075C25.7654 21.0583 25.7887 21.0357 25.8192 21.0084C25.8811 20.9531 25.9646 20.8856 26.0689 20.8128C26.2801 20.6652 26.545 20.5177 26.8451 20.4037C27.4311 20.1811 28.0947 20.1022 28.8228 20.3221C30.3675 20.7886 31.255 22.0223 31.825 23.8191C32.0789 25.2395 32.0546 27.9727 30.7541 29.258C30.3725 29.6836 29.5431 30.223 28.4799 30.9146C26.2443 32.3687 22.9753 34.4951 20.6617 37.6485C19.0075 39.7572 20.5113 41.9899 21.332 42.4378C22.4711 43.0594 23.7519 43.2942 25.0807 42.2398C26.4095 41.1854 28.5356 39.6686 30.8407 40.0741C33.1458 40.4796 34.057 40.6309 35.4021 40.6309H42.2866C43.8613 40.6309 45.1377 39.3544 45.1377 37.7796V30.6316C45.1377 27.5314 43.1879 23.5983 40.0738 22.5177C39.0635 22.1671 38.1058 21.5133 37.6974 20.5249C36.6183 17.9135 34.6206 15.1232 30.7463 13.9531C26.0211 12.5261 22.1332 15.0483 20.6502 16.7982C19.4625 18.1998 19.6358 20.2989 21.0373 21.4867C22.4389 22.6745 24.538 22.5012 25.7257 21.0997Z" fill="url(#paint26_radial_1_1194)"/>
<path d="M25.7257 21.0997C25.7257 21.0997 25.7331 21.0911 25.7489 21.075C25.7654 21.0583 25.7887 21.0357 25.8192 21.0084C25.8811 20.9531 25.9646 20.8856 26.0689 20.8128C26.2801 20.6652 26.545 20.5177 26.8451 20.4037C27.4311 20.1811 28.0947 20.1022 28.8228 20.3221C30.3675 20.7886 31.255 22.0223 31.825 23.8191C32.0789 25.2395 32.0546 27.9727 30.7541 29.258C30.3725 29.6836 29.5431 30.223 28.4799 30.9146C26.2443 32.3687 22.9753 34.4951 20.6617 37.6485C19.0075 39.7572 20.5113 41.9899 21.332 42.4378C22.4711 43.0594 23.7519 43.2942 25.0807 42.2398C26.4095 41.1854 28.5356 39.6686 30.8407 40.0741C33.1458 40.4796 34.057 40.6309 35.4021 40.6309H42.2866C43.8613 40.6309 45.1377 39.3544 45.1377 37.7796V30.6316C45.1377 27.5314 43.1879 23.5983 40.0738 22.5177C39.0635 22.1671 38.1058 21.5133 37.6974 20.5249C36.6183 17.9135 34.6206 15.1232 30.7463 13.9531C26.0211 12.5261 22.1332 15.0483 20.6502 16.7982C19.4625 18.1998 19.6358 20.2989 21.0373 21.4867C22.4389 22.6745 24.538 22.5012 25.7257 21.0997Z" fill="url(#paint27_radial_1_1194)"/>
<path d="M25.7257 21.0997C25.7257 21.0997 25.7331 21.0911 25.7489 21.075C25.7654 21.0583 25.7887 21.0357 25.8192 21.0084C25.8811 20.9531 25.9646 20.8856 26.0689 20.8128C26.2801 20.6652 26.545 20.5177 26.8451 20.4037C27.4311 20.1811 28.0947 20.1022 28.8228 20.3221C30.3675 20.7886 31.255 22.0223 31.825 23.8191C32.0789 25.2395 32.0546 27.9727 30.7541 29.258C30.3725 29.6836 29.5431 30.223 28.4799 30.9146C26.2443 32.3687 22.9753 34.4951 20.6617 37.6485C19.0075 39.7572 20.5113 41.9899 21.332 42.4378C22.4711 43.0594 23.7519 43.2942 25.0807 42.2398C26.4095 41.1854 28.5356 39.6686 30.8407 40.0741C33.1458 40.4796 34.057 40.6309 35.4021 40.6309H42.2866C43.8613 40.6309 45.1377 39.3544 45.1377 37.7796V30.6316C45.1377 27.5314 43.1879 23.5983 40.0738 22.5177C39.0635 22.1671 38.1058 21.5133 37.6974 20.5249C36.6183 17.9135 34.6206 15.1232 30.7463 13.9531C26.0211 12.5261 22.1332 15.0483 20.6502 16.7982C19.4625 18.1998 19.6358 20.2989 21.0373 21.4867C22.4389 22.6745 24.538 22.5012 25.7257 21.0997Z" fill="url(#paint28_radial_1_1194)"/>
<path d="M25.7257 21.0997C25.7257 21.0997 25.7331 21.0911 25.7489 21.075C25.7654 21.0583 25.7887 21.0357 25.8192 21.0084C25.8811 20.9531 25.9646 20.8856 26.0689 20.8128C26.2801 20.6652 26.545 20.5177 26.8451 20.4037C27.4311 20.1811 28.0947 20.1022 28.8228 20.3221C30.3675 20.7886 31.255 22.0223 31.825 23.8191C32.0789 25.2395 32.0546 27.9727 30.7541 29.258C30.3725 29.6836 29.5431 30.223 28.4799 30.9146C26.2443 32.3687 22.9753 34.4951 20.6617 37.6485C19.0075 39.7572 20.5113 41.9899 21.332 42.4378C22.4711 43.0594 23.7519 43.2942 25.0807 42.2398C26.4095 41.1854 28.5356 39.6686 30.8407 40.0741C33.1458 40.4796 34.057 40.6309 35.4021 40.6309H42.2866C43.8613 40.6309 45.1377 39.3544 45.1377 37.7796V30.6316C45.1377 27.5314 43.1879 23.5983 40.0738 22.5177C39.0635 22.1671 38.1058 21.5133 37.6974 20.5249C36.6183 17.9135 34.6206 15.1232 30.7463 13.9531C26.0211 12.5261 22.1332 15.0483 20.6502 16.7982C19.4625 18.1998 19.6358 20.2989 21.0373 21.4867C22.4389 22.6745 24.538 22.5012 25.7257 21.0997Z" fill="url(#paint29_radial_1_1194)"/>
<path d="M25.7257 21.0997C25.7257 21.0997 25.7331 21.0911 25.7489 21.075C25.7654 21.0583 25.7887 21.0357 25.8192 21.0084C25.8811 20.9531 25.9646 20.8856 26.0689 20.8128C26.2801 20.6652 26.545 20.5177 26.8451 20.4037C27.4311 20.1811 28.0947 20.1022 28.8228 20.3221C30.3675 20.7886 31.255 22.0223 31.825 23.8191C32.0789 25.2395 32.0546 27.9727 30.7541 29.258C30.3725 29.6836 29.5431 30.223 28.4799 30.9146C26.2443 32.3687 22.9753 34.4951 20.6617 37.6485C19.0075 39.7572 20.5113 41.9899 21.332 42.4378C22.4711 43.0594 23.7519 43.2942 25.0807 42.2398C26.4095 41.1854 28.5356 39.6686 30.8407 40.0741C33.1458 40.4796 34.057 40.6309 35.4021 40.6309H42.2866C43.8613 40.6309 45.1377 39.3544 45.1377 37.7796V30.6316C45.1377 27.5314 43.1879 23.5983 40.0738 22.5177C39.0635 22.1671 38.1058 21.5133 37.6974 20.5249C36.6183 17.9135 34.6206 15.1232 30.7463 13.9531C26.0211 12.5261 22.1332 15.0483 20.6502 16.7982C19.4625 18.1998 19.6358 20.2989 21.0373 21.4867C22.4389 22.6745 24.538 22.5012 25.7257 21.0997Z" fill="url(#paint30_radial_1_1194)"/>
<path d="M25.7257 21.0997C25.7257 21.0997 25.7331 21.0911 25.7489 21.075C25.7654 21.0583 25.7887 21.0357 25.8192 21.0084C25.8811 20.9531 25.9646 20.8856 26.0689 20.8128C26.2801 20.6652 26.545 20.5177 26.8451 20.4037C27.4311 20.1811 28.0947 20.1022 28.8228 20.3221C30.3675 20.7886 31.255 22.0223 31.825 23.8191C32.0789 25.2395 32.0546 27.9727 30.7541 29.258C30.3725 29.6836 29.5431 30.223 28.4799 30.9146C26.2443 32.3687 22.9753 34.4951 20.6617 37.6485C19.0075 39.7572 20.5113 41.9899 21.332 42.4378C22.4711 43.0594 23.7519 43.2942 25.0807 42.2398C26.4095 41.1854 28.5356 39.6686 30.8407 40.0741C33.1458 40.4796 34.057 40.6309 35.4021 40.6309H42.2866C43.8613 40.6309 45.1377 39.3544 45.1377 37.7796V30.6316C45.1377 27.5314 43.1879 23.5983 40.0738 22.5177C39.0635 22.1671 38.1058 21.5133 37.6974 20.5249C36.6183 17.9135 34.6206 15.1232 30.7463 13.9531C26.0211 12.5261 22.1332 15.0483 20.6502 16.7982C19.4625 18.1998 19.6358 20.2989 21.0373 21.4867C22.4389 22.6745 24.538 22.5012 25.7257 21.0997Z" fill="url(#paint31_radial_1_1194)"/>
<path d="M25.7257 21.0997C25.7257 21.0997 25.7331 21.0911 25.7489 21.075C25.7654 21.0583 25.7887 21.0357 25.8192 21.0084C25.8811 20.9531 25.9646 20.8856 26.0689 20.8128C26.2801 20.6652 26.545 20.5177 26.8451 20.4037C27.4311 20.1811 28.0947 20.1022 28.8228 20.3221C30.3675 20.7886 31.255 22.0223 31.825 23.8191C32.0789 25.2395 32.0546 27.9727 30.7541 29.258C30.3725 29.6836 29.5431 30.223 28.4799 30.9146C26.2443 32.3687 22.9753 34.4951 20.6617 37.6485C19.0075 39.7572 20.5113 41.9899 21.332 42.4378C22.4711 43.0594 23.7519 43.2942 25.0807 42.2398C26.4095 41.1854 28.5356 39.6686 30.8407 40.0741C33.1458 40.4796 34.057 40.6309 35.4021 40.6309H42.2866C43.8613 40.6309 45.1377 39.3544 45.1377 37.7796V30.6316C45.1377 27.5314 43.1879 23.5983 40.0738 22.5177C39.0635 22.1671 38.1058 21.5133 37.6974 20.5249C36.6183 17.9135 34.6206 15.1232 30.7463 13.9531C26.0211 12.5261 22.1332 15.0483 20.6502 16.7982C19.4625 18.1998 19.6358 20.2989 21.0373 21.4867C22.4389 22.6745 24.538 22.5012 25.7257 21.0997Z" fill="url(#paint32_radial_1_1194)"/>
<path d="M25.7257 21.0997C25.7257 21.0997 25.7331 21.0911 25.7489 21.075C25.7654 21.0583 25.7887 21.0357 25.8192 21.0084C25.8811 20.9531 25.9646 20.8856 26.0689 20.8128C26.2801 20.6652 26.545 20.5177 26.8451 20.4037C27.4311 20.1811 28.0947 20.1022 28.8228 20.3221C30.3675 20.7886 31.255 22.0223 31.825 23.8191C32.0789 25.2395 32.0546 27.9727 30.7541 29.258C30.3725 29.6836 29.5431 30.223 28.4799 30.9146C26.2443 32.3687 22.9753 34.4951 20.6617 37.6485C19.0075 39.7572 20.5113 41.9899 21.332 42.4378C22.4711 43.0594 23.7519 43.2942 25.0807 42.2398C26.4095 41.1854 28.5356 39.6686 30.8407 40.0741C33.1458 40.4796 34.057 40.6309 35.4021 40.6309H42.2866C43.8613 40.6309 45.1377 39.3544 45.1377 37.7796V30.6316C45.1377 27.5314 43.1879 23.5983 40.0738 22.5177C39.0635 22.1671 38.1058 21.5133 37.6974 20.5249C36.6183 17.9135 34.6206 15.1232 30.7463 13.9531C26.0211 12.5261 22.1332 15.0483 20.6502 16.7982C19.4625 18.1998 19.6358 20.2989 21.0373 21.4867C22.4389 22.6745 24.538 22.5012 25.7257 21.0997Z" fill="url(#paint33_radial_1_1194)"/>
<path d="M25.7254 21.0997C25.7254 21.0997 25.7327 21.0911 25.7486 21.075C25.765 21.0583 25.7883 21.0357 25.8189 21.0084C25.8808 20.9531 25.9643 20.8856 26.0686 20.8128C26.2798 20.6652 26.5446 20.5177 26.8447 20.4037C27.4307 20.1811 28.0944 20.1022 28.8224 20.3221C30.3671 20.7886 31.2547 22.0223 31.8247 23.8191C33.4527 24.9794 37.4072 23.514 37.6819 20.8225C37.7019 20.6269 37.6593 20.4312 37.5807 20.251C36.4763 17.7208 34.4851 15.0824 30.7459 13.9531C26.0207 12.5261 22.1329 15.0483 20.6499 16.7982C19.4621 18.1998 19.6354 20.2989 21.037 21.4867C22.4386 22.6745 24.5376 22.5012 25.7254 21.0997Z" fill="url(#paint34_radial_1_1194)"/>
<path d="M25.7254 21.0997C25.7254 21.0997 25.7327 21.0911 25.7486 21.075C25.765 21.0583 25.7883 21.0357 25.8189 21.0084C25.8808 20.9531 25.9643 20.8856 26.0686 20.8128C26.2798 20.6652 26.5446 20.5177 26.8447 20.4037C27.4307 20.1811 28.0944 20.1022 28.8224 20.3221C30.3671 20.7886 31.2547 22.0223 31.8247 23.8191C33.4527 24.9794 37.4072 23.514 37.6819 20.8225C37.7019 20.6269 37.6593 20.4312 37.5807 20.251C36.4763 17.7208 34.4851 15.0824 30.7459 13.9531C26.0207 12.5261 22.1329 15.0483 20.6499 16.7982C19.4621 18.1998 19.6354 20.2989 21.037 21.4867C22.4386 22.6745 24.5376 22.5012 25.7254 21.0997Z" fill="url(#paint35_radial_1_1194)"/>
<path d="M25.7254 21.0997C25.7254 21.0997 25.7327 21.0911 25.7486 21.075C25.765 21.0583 25.7883 21.0357 25.8189 21.0084C25.8808 20.9531 25.9643 20.8856 26.0686 20.8128C26.2798 20.6652 26.5446 20.5177 26.8447 20.4037C27.4307 20.1811 28.0944 20.1022 28.8224 20.3221C30.3671 20.7886 31.2547 22.0223 31.8247 23.8191C33.4527 24.9794 37.4072 23.514 37.6819 20.8225C37.7019 20.6269 37.6593 20.4312 37.5807 20.251C36.4763 17.7208 34.4851 15.0824 30.7459 13.9531C26.0207 12.5261 22.1329 15.0483 20.6499 16.7982C19.4621 18.1998 19.6354 20.2989 21.037 21.4867C22.4386 22.6745 24.5376 22.5012 25.7254 21.0997Z" fill="url(#paint36_radial_1_1194)"/>
<path d="M25.7254 21.0997C25.7254 21.0997 25.7327 21.0911 25.7486 21.075C25.765 21.0583 25.7883 21.0357 25.8189 21.0084C25.8808 20.9531 25.9643 20.8856 26.0686 20.8128C26.2798 20.6652 26.5446 20.5177 26.8447 20.4037C27.4307 20.1811 28.0944 20.1022 28.8224 20.3221C30.3671 20.7886 31.2547 22.0223 31.8247 23.8191C33.4527 24.9794 37.4072 23.514 37.6819 20.8225C37.7019 20.6269 37.6593 20.4312 37.5807 20.251C36.4763 17.7208 34.4851 15.0824 30.7459 13.9531C26.0207 12.5261 22.1329 15.0483 20.6499 16.7982C19.4621 18.1998 19.6354 20.2989 21.037 21.4867C22.4386 22.6745 24.5376 22.5012 25.7254 21.0997Z" fill="url(#paint37_radial_1_1194)"/>
<path d="M25.7254 21.0997C25.7254 21.0997 25.7327 21.0911 25.7486 21.075C25.765 21.0583 25.7883 21.0357 25.8189 21.0084C25.8808 20.9531 25.9643 20.8856 26.0686 20.8128C26.2798 20.6652 26.5446 20.5177 26.8447 20.4037C27.4307 20.1811 28.0944 20.1022 28.8224 20.3221C30.3671 20.7886 31.2547 22.0223 31.8247 23.8191C33.4527 24.9794 37.4072 23.514 37.6819 20.8225C37.7019 20.6269 37.6593 20.4312 37.5807 20.251C36.4763 17.7208 34.4851 15.0824 30.7459 13.9531C26.0207 12.5261 22.1329 15.0483 20.6499 16.7982C19.4621 18.1998 19.6354 20.2989 21.037 21.4867C22.4386 22.6745 24.5376 22.5012 25.7254 21.0997Z" fill="url(#paint38_radial_1_1194)"/>
<path d="M25.7254 21.0997C25.7254 21.0997 25.7327 21.0911 25.7486 21.075C25.765 21.0583 25.7883 21.0357 25.8189 21.0084C25.8808 20.9531 25.9643 20.8856 26.0686 20.8128C26.2798 20.6652 26.5446 20.5177 26.8447 20.4037C27.4307 20.1811 28.0944 20.1022 28.8224 20.3221C30.3671 20.7886 31.2547 22.0223 31.8247 23.8191C33.4527 24.9794 37.4072 23.514 37.6819 20.8225C37.7019 20.6269 37.6593 20.4312 37.5807 20.251C36.4763 17.7208 34.4851 15.0824 30.7459 13.9531C26.0207 12.5261 22.1329 15.0483 20.6499 16.7982C19.4621 18.1998 19.6354 20.2989 21.037 21.4867C22.4386 22.6745 24.5376 22.5012 25.7254 21.0997Z" fill="url(#paint39_radial_1_1194)"/>
<path d="M25.7254 21.0997C25.7254 21.0997 25.7327 21.0911 25.7486 21.075C25.765 21.0583 25.7883 21.0357 25.8189 21.0084C25.8808 20.9531 25.9643 20.8856 26.0686 20.8128C26.2798 20.6652 26.5446 20.5177 26.8447 20.4037C27.4307 20.1811 28.0944 20.1022 28.8224 20.3221C30.3671 20.7886 31.2547 22.0223 31.8247 23.8191C33.4527 24.9794 37.4072 23.514 37.6819 20.8225C37.7019 20.6269 37.6593 20.4312 37.5807 20.251C36.4763 17.7208 34.4851 15.0824 30.7459 13.9531C26.0207 12.5261 22.1329 15.0483 20.6499 16.7982C19.4621 18.1998 19.6354 20.2989 21.037 21.4867C22.4386 22.6745 24.5376 22.5012 25.7254 21.0997Z" fill="url(#paint40_radial_1_1194)"/>
<defs>
<radialGradient id="paint0_radial_1_1194" cx="0" cy="0" r="1" gradientUnits="userSpaceOnUse" gradientTransform="translate(21.6756 13.8252) rotate(142.891) scale(16.5733 18.3125)">
<stop offset="0.111943" stop-color="#F1C036"/>
<stop offset="1" stop-color="#F4A444"/>
</radialGradient>
<radialGradient id="paint1_radial_1_1194" cx="0" cy="0" r="1" gradientUnits="userSpaceOnUse" gradientTransform="translate(15.9018 21.293) rotate(141.921) scale(11.0712 9.9345)">
<stop offset="0.685196" stop-color="#CC7A23"/>
<stop offset="0.880082" stop-color="#EFA128" stop-opacity="0"/>
</radialGradient>
<radialGradient id="paint2_radial_1_1194" cx="0" cy="0" r="1" gradientUnits="userSpaceOnUse" gradientTransform="translate(20.3042 15.9922) rotate(101.113) scale(2.5637 5.11179)">
<stop offset="0.641695" stop-color="#B68D64"/>
<stop offset="1" stop-color="#B68D64" stop-opacity="0"/>
</radialGradient>
<linearGradient id="paint3_linear_1_1194" x1="13.6057" y1="13.5327" x2="13.6057" y2="42.9674" gradientUnits="userSpaceOnUse">
<stop stop-color="#FCBC26"/>
<stop offset="0.736752" stop-color="#FFC050"/>
</linearGradient>
<radialGradient id="paint4_radial_1_1194" cx="0" cy="0" r="1" gradientUnits="userSpaceOnUse" gradientTransform="translate(20.8448 41.5078) rotate(180) scale(18.0586 7.99609)">
<stop offset="0.158824" stop-color="#E2735F"/>
<stop offset="1" stop-color="#FFB05C" stop-opacity="0"/>
</radialGradient>
<radialGradient id="paint5_radial_1_1194" cx="0" cy="0" r="1" gradientUnits="userSpaceOnUse" gradientTransform="translate(18.5987 27.2227) rotate(37.6942) scale(12.4896 8.34362)">
<stop offset="0.697158" stop-color="#FFCE5C"/>
<stop offset="1" stop-color="#FFCE5C" stop-opacity="0"/>
</radialGradient>
<radialGradient id="paint6_radial_1_1194" cx="0" cy="0" r="1" gradientUnits="userSpaceOnUse" gradientTransform="translate(18.7784 28.2502) rotate(38.2741) scale(9.50945 5.1175)">
<stop offset="0.581522" stop-color="#D09A52"/>
<stop offset="0.69321" stop-color="#F9BA2E"/>
<stop offset="1" stop-color="#F9BA2E" stop-opacity="0"/>
</radialGradient>
<radialGradient id="paint7_radial_1_1194" cx="0" cy="0" r="1" gradientUnits="userSpaceOnUse" gradientTransform="translate(21.8331 30.5469) rotate(51.5627) scale(14.4523 4.31952)">
<stop offset="0.581522" stop-color="#D09A52"/>
<stop offset="1" stop-color="#F9BA2E" stop-opacity="0"/>
</radialGradient>
<radialGradient id="paint8_radial_1_1194" cx="0" cy="0" r="1" gradientUnits="userSpaceOnUse" gradientTransform="translate(22.6417 15.3633) rotate(108.435) scale(7.38688 6.3433)">
<stop stop-color="#E8B333"/>
<stop offset="1" stop-color="#E8B333" stop-opacity="0"/>
</radialGradient>
<radialGradient id="paint9_radial_1_1194" cx="0" cy="0" r="1" gradientUnits="userSpaceOnUse" gradientTransform="translate(21.7432 18.6875) rotate(126.69) scale(5.71409 3.69811)">
<stop offset="0.55016" stop-color="#C47E30"/>
<stop offset="1" stop-color="#EEB634" stop-opacity="0"/>
</radialGradient>
<radialGradient id="paint10_radial_1_1194" cx="0" cy="0" r="1" gradientUnits="userSpaceOnUse" gradientTransform="translate(19.2276 22.2812) rotate(135.242) scale(8.47724 5.4381)">
<stop offset="0.345104" stop-color="#E57A4C"/>
<stop offset="0.66782" stop-color="#EE9758"/>
<stop offset="1" stop-color="#ED8C50" stop-opacity="0"/>
</radialGradient>
<radialGradient id="paint11_radial_1_1194" cx="0" cy="0" r="1" gradientUnits="userSpaceOnUse" gradientTransform="translate(0.00105361 32.3438) rotate(97.8291) scale(14.5103 7.00925)">
<stop stop-color="#FDAF2D"/>
<stop offset="1" stop-color="#FDAF2D" stop-opacity="0"/>
</radialGradient>
<radialGradient id="paint12_radial_1_1194" cx="0" cy="0" r="1" gradientUnits="userSpaceOnUse" gradientTransform="translate(22.6417 39.5313) rotate(-73.1874) scale(6.52296 4.2216)">
<stop offset="0.647578" stop-color="#C47E30"/>
<stop offset="1" stop-color="#EFAE50" stop-opacity="0"/>
</radialGradient>
<linearGradient id="paint13_linear_1_1194" x1="7.54793" y1="42.9678" x2="7.54793" y2="37.9141" gradientUnits="userSpaceOnUse">
<stop offset="0.466667" stop-color="#F9897C"/>
<stop offset="1" stop-color="#F9897C" stop-opacity="0"/>
</linearGradient>
<radialGradient id="paint14_radial_1_1194" cx="0" cy="0" r="1" gradientUnits="userSpaceOnUse" gradientTransform="translate(21.4288 39.9805) rotate(-53.8418) scale(4.33979 2.80867)">
<stop offset="0.48216" stop-color="#DE715B"/>
<stop offset="1" stop-color="#DE715B" stop-opacity="0"/>
</radialGradient>
<radialGradient id="paint15_radial_1_1194" cx="0" cy="0" r="1" gradientUnits="userSpaceOnUse" gradientTransform="translate(25.1573 37.6445) rotate(150.35) scale(33.5984 41.5607)">
<stop offset="0.646514" stop-color="#EDAD62" stop-opacity="0"/>
<stop offset="0.682982" stop-color="#E79B40"/>
</radialGradient>
<linearGradient id="paint16_linear_1_1194" x1="22.0108" y1="15.2734" x2="38.0929" y2="15.2734" gradientUnits="userSpaceOnUse">
<stop stop-color="#D79F35"/>
<stop offset="0.78882" stop-color="#FFDC62"/>
</linearGradient>
<radialGradient id="paint17_radial_1_1194" cx="0" cy="0" r="1" gradientUnits="userSpaceOnUse" gradientTransform="translate(29.4679 18.8672) rotate(100.823) scale(6.22002 8.81288)">
<stop offset="0.765401" stop-color="#E2A02D"/>
<stop offset="1" stop-color="#E2A02D" stop-opacity="0"/>
</radialGradient>
<radialGradient id="paint18_radial_1_1194" cx="0" cy="0" r="1" gradientUnits="userSpaceOnUse" gradientTransform="translate(39.0811 24.4375) rotate(-140.677) scale(7.89748 4.1992)">
<stop offset="0.593754" stop-color="#FFCA49"/>
<stop offset="1" stop-color="#FFCA49" stop-opacity="0"/>
</radialGradient>
<radialGradient id="paint19_radial_1_1194" cx="0" cy="0" r="1" gradientUnits="userSpaceOnUse" gradientTransform="translate(43.6644 26.6836) rotate(68.4679) scale(14.1979 5.11146)">
<stop stop-color="#FFED63"/>
<stop offset="1" stop-color="#FFED63" stop-opacity="0"/>
</radialGradient>
<radialGradient id="paint20_radial_1_1194" cx="0" cy="0" r="1" gradientUnits="userSpaceOnUse" gradientTransform="translate(40.1605 22.8203) rotate(39.2393) scale(8.58405 5.68297)">
<stop stop-color="#FFED63"/>
<stop offset="1" stop-color="#FFED63" stop-opacity="0"/>
</radialGradient>
<radialGradient id="paint21_radial_1_1194" cx="0" cy="0" r="1" gradientUnits="userSpaceOnUse" gradientTransform="translate(45.9105 35.7578) rotate(88.8188) scale(17.4334 13.1996)">
<stop stop-color="#FFED63"/>
<stop offset="1" stop-color="#FFCD52" stop-opacity="0"/>
</radialGradient>
<radialGradient id="paint22_radial_1_1194" cx="0" cy="0" r="1" gradientUnits="userSpaceOnUse" gradientTransform="translate(37.6898 21.6973) rotate(137.978) scale(2.75135 4.37201)">
<stop offset="0.267245" stop-color="#FFE05D"/>
<stop offset="1" stop-color="#FFE05D" stop-opacity="0"/>
</radialGradient>
<radialGradient id="paint23_radial_1_1194" cx="0" cy="0" r="1" gradientUnits="userSpaceOnUse" gradientTransform="translate(42.4066 26.7734) rotate(72.4287) scale(5.65445 1.49748)">
<stop stop-color="#FFED64"/>
<stop offset="1" stop-color="#FFED64" stop-opacity="0"/>
</radialGradient>
<radialGradient id="paint24_radial_1_1194" cx="0" cy="0" r="1" gradientUnits="userSpaceOnUse" gradientTransform="translate(25.516 28.2502) rotate(154.172) scale(8.98334 5.49006)">
<stop offset="0.5708" stop-color="#D18831"/>
<stop offset="1" stop-color="#D18831" stop-opacity="0"/>
</radialGradient>
<radialGradient id="paint25_radial_1_1194" cx="0" cy="0" r="1" gradientUnits="userSpaceOnUse" gradientTransform="translate(21.473 33.0625) rotate(141.254) scale(9.33078 3.61106)">
<stop offset="0.5708" stop-color="#D18831"/>
<stop offset="1" stop-color="#D18831" stop-opacity="0"/>
</radialGradient>
<radialGradient id="paint26_radial_1_1194" cx="0" cy="0" r="1" gradientUnits="userSpaceOnUse" gradientTransform="translate(19.8614 41.7773) rotate(-73.3336) scale(9.37835 4.15075)">
<stop stop-color="#F29F39"/>
<stop offset="1" stop-color="#F29F39" stop-opacity="0"/>
</radialGradient>
<radialGradient id="paint27_radial_1_1194" cx="0" cy="0" r="1" gradientUnits="userSpaceOnUse" gradientTransform="translate(34.5902 43.4844) rotate(180) scale(11.0508 14.0156)">
<stop stop-color="#FFB254"/>
<stop offset="0.963813" stop-color="#FFB254" stop-opacity="0"/>
</radialGradient>
<radialGradient id="paint28_radial_1_1194" cx="0" cy="0" r="1" gradientUnits="userSpaceOnUse" gradientTransform="translate(29.4691 43.5742) rotate(162.087) scale(9.34764 6.02264)">
<stop offset="0.573672" stop-color="#ED7B8C"/>
<stop offset="0.963813" stop-color="#FFA25A" stop-opacity="0"/>
</radialGradient>
<radialGradient id="paint29_radial_1_1194" cx="0" cy="0" r="1" gradientUnits="userSpaceOnUse" gradientTransform="translate(39.5316 43.5742) rotate(-179.663) scale(15.2737 4.67021)">
<stop offset="0.573672" stop-color="#ED7B8C"/>
<stop offset="0.963813" stop-color="#FFA25A" stop-opacity="0"/>
</radialGradient>
<radialGradient id="paint30_radial_1_1194" cx="0" cy="0" r="1" gradientUnits="userSpaceOnUse" gradientTransform="translate(36.8363 26.2344) rotate(132.443) scale(23.4974 19.5453)">
<stop offset="0.860635" stop-color="#F27E7B" stop-opacity="0"/>
<stop offset="0.990077" stop-color="#F27E7B"/>
</radialGradient>
<radialGradient id="paint31_radial_1_1194" cx="0" cy="0" r="1" gradientUnits="userSpaceOnUse" gradientTransform="translate(24.1683 39.7109) rotate(-32.3807) scale(4.36182 2.47423)">
<stop offset="0.111583" stop-color="#FFC06D"/>
<stop offset="1" stop-color="#FFB859" stop-opacity="0"/>
</radialGradient>
<radialGradient id="paint32_radial_1_1194" cx="0" cy="0" r="1" gradientUnits="userSpaceOnUse" gradientTransform="translate(37.2855 22.2812) rotate(54.118) scale(1.30293 1.84552)">
<stop offset="0.0121828" stop-color="#FFEB62"/>
<stop offset="1" stop-color="#FFEB62" stop-opacity="0"/>
</radialGradient>
<radialGradient id="paint33_radial_1_1194" cx="0" cy="0" r="1" gradientUnits="userSpaceOnUse" gradientTransform="translate(20.948 37.6445) rotate(29.6499) scale(33.5984 41.5607)">
<stop offset="0.654767" stop-color="#FFCE47" stop-opacity="0"/>
<stop offset="0.704535" stop-color="#FFCE47"/>
</radialGradient>
<radialGradient id="paint34_radial_1_1194" cx="0" cy="0" r="1" gradientUnits="userSpaceOnUse" gradientTransform="translate(28.7795 23.9883) rotate(64.187) scale(21.9065 21.4961)">
<stop stop-color="#D776A6"/>
<stop offset="0.0873001" stop-color="#E58549"/>
<stop offset="0.142108" stop-color="#FCAF57"/>
<stop offset="0.34548" stop-color="#FFDE5A"/>
<stop offset="0.649322" stop-color="#FFCD40"/>
<stop offset="1" stop-color="#FFCD40" stop-opacity="0"/>
</radialGradient>
<radialGradient id="paint35_radial_1_1194" cx="0" cy="0" r="1" gradientUnits="userSpaceOnUse" gradientTransform="translate(21.2031 22.2813) rotate(79.9507) scale(14.4165 8.45465)">
<stop stop-color="#E78740"/>
<stop offset="1" stop-color="#FAC228" stop-opacity="0"/>
</radialGradient>
<radialGradient id="paint36_radial_1_1194" cx="0" cy="0" r="1" gradientUnits="userSpaceOnUse" gradientTransform="translate(36.8809 21.248) rotate(56.5532) scale(5.86828 1.85591)">
<stop stop-color="#FFED63"/>
<stop offset="1" stop-color="#FFED63" stop-opacity="0"/>
</radialGradient>
<radialGradient id="paint37_radial_1_1194" cx="0" cy="0" r="1" gradientUnits="userSpaceOnUse" gradientTransform="translate(27.8066 22.5957) rotate(90.4658) scale(5.52557 5.8781)">
<stop offset="0.464081" stop-color="#D97696"/>
<stop offset="0.492684" stop-color="#E38550"/>
<stop offset="1" stop-color="#FFB950" stop-opacity="0"/>
</radialGradient>
<radialGradient id="paint38_radial_1_1194" cx="0" cy="0" r="1" gradientUnits="userSpaceOnUse" gradientTransform="translate(31.5352 27.5371) rotate(-129.725) scale(4.31248 7.19687)">
<stop offset="0.439843" stop-color="#FFBB45"/>
<stop offset="1" stop-color="#FFBB45" stop-opacity="0"/>
</radialGradient>
<radialGradient id="paint39_radial_1_1194" cx="0" cy="0" r="1" gradientUnits="userSpaceOnUse" gradientTransform="translate(31.7598 26.8184) rotate(-112.765) scale(5.4563 2.34409)">
<stop offset="0.268217" stop-color="#F1AC40"/>
<stop offset="1" stop-color="#D18831" stop-opacity="0"/>
</radialGradient>
<radialGradient id="paint40_radial_1_1194" cx="0" cy="0" r="1" gradientUnits="userSpaceOnUse" gradientTransform="translate(21.6523 23.1348) rotate(-8.66413) scale(9.54249 2.28416)">
<stop offset="0.34986" stop-color="#DF798F"/>
<stop offset="1" stop-color="#DF798F" stop-opacity="0"/>
</radialGradient>
</defs>
</svg>
