<svg width="264" height="89" viewBox="0 0 264 89" fill="none" xmlns="http://www.w3.org/2000/svg">
<path d="M26.5331 21.9266L38.7575 20.1817V69.8121C38.7575 74.5282 37.029 78.3336 33.572 81.2284C30.0863 84.1532 25.4492 85.6155 19.6609 85.6155C14.4755 85.6155 10.2137 84.5121 6.87539 82.3019C3.5339 80.1217 1.59058 77.0773 1.04221 73.1689C0.926767 72.2449 0.869045 70.7925 0.885079 70.1245H12.9747C12.9747 70.1245 12.9876 70.4702 13.0036 70.859C13.0421 71.7331 13.2762 72.5939 13.7283 73.3284C14.7834 75.04 16.7171 75.8975 19.5294 75.8975C21.6299 75.8975 23.3167 75.2693 24.5834 74.0164C25.8212 72.7634 26.4401 71.1349 26.4401 69.1374V59.3762H25.7058C24.8688 61.5863 23.3872 63.3312 21.2547 64.6141C19.0645 65.9269 16.6337 66.5849 13.9528 66.5849C9.83527 66.5849 6.48096 65.2123 3.88665 62.4671C1.29555 59.7218 0 56.1091 0 51.6323V35.9619C0 31.4851 1.29555 27.8724 3.88665 25.1271C6.47775 22.3819 9.8481 21.0093 13.9945 21.0093C16.8454 21.0093 19.2921 21.6972 21.3381 23.0699C23.4129 24.4425 24.8944 26.2472 25.7891 28.4872H26.5235V21.9299L26.5331 21.9266ZM19.2312 54.7199C21.3637 54.7199 23.089 54.0785 24.4166 52.7956C25.741 51.5127 26.4048 49.9008 26.4048 47.9598V39.8105C26.4048 37.9294 25.741 36.3474 24.4166 35.0645C23.0922 33.7816 21.3637 33.1402 19.2312 33.1402C17.0987 33.1402 15.4857 33.7517 14.219 34.9748C12.9523 36.1978 12.3173 37.8397 12.3173 39.9003V47.8701C12.3173 49.9606 12.9491 51.6623 14.219 52.8853C15.4857 54.1084 17.1564 54.7199 19.2312 54.7199Z" fill="black"/>
<path d="M57.2338 49.237L57.2605 52.2786C57.2839 54.3424 58.0077 55.9829 59.4285 57.2068C60.8494 58.4306 62.7005 59.0278 64.9752 59.0015C68.3305 58.9655 70.5185 57.9254 71.5458 55.878C72.0527 54.7525 72.1361 53.8502 72.1361 53.8502L81.8419 53.8568C82.7091 53.847 84.8171 53.847 84.8171 53.847C84.7203 55.1364 84.6503 55.7041 84.5402 56.5309C84.0132 60.3665 81.9987 63.4409 78.4899 65.7475C75.0412 68.0245 70.7186 69.1926 65.2387 69.2549C59.0383 69.3238 54.0486 67.7128 50.2663 64.4252C46.4841 61.1375 44.5629 56.7376 44.4995 51.2287L44.3761 40.3551C44.3128 34.8167 46.1038 30.3773 49.7527 27.0339C53.4282 23.6642 58.3212 21.9449 64.4315 21.876C70.5418 21.8071 75.4414 23.451 79.137 26.7977C82.8592 30.1772 84.7537 34.6198 84.8137 40.1287V49.2337H57.2338V49.237ZM64.5015 32.1655H64.4582C62.3002 32.1885 60.5425 32.8119 59.1784 34.0358C57.8442 35.2301 57.1872 36.7394 57.2105 38.7999L57.2372 41.0967H71.8393L71.8126 38.8032C71.7893 36.7426 71.1122 35.1119 69.7814 33.9176C68.4506 32.7233 66.6895 32.1393 64.5049 32.1623L64.5015 32.1655Z" fill="black"/>
<path d="M117.957 36.2173V24.8314H107.818L107.825 22.9735V11.7204L95.4976 13.4422V24.8314H87.0638V36.2173H94.871V55.7312C94.871 59.6359 96.151 62.7644 98.7076 65.1166C101.294 67.5019 104.695 68.6929 108.907 68.6929H115.223V56.8956H112.472C110.968 56.8956 109.809 56.4776 108.998 55.6449C108.187 54.7823 107.778 53.6643 107.778 52.2942V36.2206H117.954L117.957 36.2173Z" fill="black"/>
<path d="M173.699 21.9263L185.923 20.1814V69.8118C185.923 74.5279 184.194 78.3334 180.737 81.2282C177.252 84.1529 172.615 85.6152 166.826 85.6152C161.641 85.6152 157.379 84.5118 154.041 82.3017C150.699 80.1214 148.756 77.0771 148.208 73.1686C148.092 72.2446 148.034 70.7923 148.05 70.1242H160.14C160.14 70.1242 160.153 70.4699 160.169 70.8587C160.207 71.7328 160.442 72.5936 160.894 73.3281C161.949 75.0397 163.882 75.8972 166.695 75.8972C168.795 75.8972 170.482 75.2691 171.749 74.0161C172.987 72.7631 173.606 71.1346 173.606 69.1371V59.3759H172.871C172.034 61.5861 170.553 63.3309 168.42 64.6138C166.23 65.9266 163.799 66.5847 161.118 66.5847C157.001 66.5847 153.646 65.212 151.052 62.4668C148.461 59.7216 147.165 56.1089 147.165 51.6321V35.9616C147.165 31.4848 148.461 27.8721 151.052 25.1269C153.643 22.3816 157.014 21.009 161.16 21.009C164.011 21.009 166.458 21.697 168.504 23.0696C170.578 24.4422 172.06 26.2469 172.955 28.487H173.689V21.9296L173.699 21.9263ZM166.4 54.7196C168.532 54.7196 170.258 54.0782 171.585 52.7953C172.91 51.5124 173.573 49.9005 173.573 47.9596V39.8103C173.573 37.9291 172.91 36.3471 171.585 35.0642C170.261 33.7814 168.532 33.1399 166.4 33.1399C164.267 33.1399 162.654 33.7514 161.388 34.9745C160.121 36.1976 159.486 37.8394 159.486 39.9V47.8698C159.486 49.9603 160.118 51.662 161.388 52.885C162.654 54.1081 164.325 54.7196 166.4 54.7196Z" fill="black"/>
<path d="M204.4 49.237L204.427 52.2786C204.45 54.3424 205.174 55.9829 206.595 57.2068C208.015 58.4306 209.866 59.0278 212.141 59.0015C215.497 58.9655 217.685 57.9254 218.712 55.878C219.219 54.7525 219.302 53.8502 219.302 53.8502L229.008 53.8568C229.875 53.847 231.983 53.847 231.983 53.847C231.886 55.1364 231.816 55.7041 231.706 56.5309C231.179 60.3665 229.165 63.4409 225.656 65.7475C222.207 68.0245 217.885 69.1926 212.405 69.2549C206.204 69.3238 201.215 67.7128 197.432 64.4252C193.65 61.1375 191.729 56.7376 191.666 51.2287L191.542 40.3551C191.479 34.8167 193.27 30.3773 196.919 27.0339C200.594 23.6642 205.487 21.9449 211.598 21.876C217.708 21.8071 222.607 23.451 226.303 26.7977C230.025 30.1772 231.92 34.6198 231.98 40.1287V49.2337H204.4V49.237ZM211.664 32.1655H211.621C209.463 32.1885 207.705 32.8119 206.341 34.0358C205.007 35.2301 204.35 36.7394 204.373 38.7999L204.4 41.0967H219.002L218.975 38.8032C218.952 36.7426 218.275 35.1119 216.944 33.9176C215.613 32.7233 213.852 32.1393 211.668 32.1623L211.664 32.1655Z" fill="black"/>
<path d="M264 36.2173V24.8314H254.229L254.236 22.9735V11.7204L242.357 13.4422V24.8314H234.23V36.2173H241.753V55.7312C241.753 59.6359 242.987 62.7644 245.45 65.1166C247.943 67.5019 251.22 68.6929 255.279 68.6929H261.365V56.8956H258.714C257.265 56.8956 256.147 56.4776 255.366 55.6449C254.585 54.7823 254.191 53.6643 254.191 52.2942V36.2206H263.997L264 36.2173Z" fill="black"/>
</svg>
